{
    "asset" : {
        "generator" : "Khronos glTF Blender I/O v1.2.75",
        "version" : "2.0"
    },
    "scene" : 0,
    "scenes" : [
        {
            "name" : "Scene",
            "nodes" : [
                0,
                1,
                2,
                3,
                4
            ]
        }
    ],
    "nodes" : [
        {
            "mesh" : 0,
            "name" : "\u30b3\u30f3\u30bb\u30f3\u30c8\u70701",
            "scale" : [
                0.699999988079071,
                1.2000000476837158,
                0.004000000189989805
            ]
        },
        {
            "mesh" : 1,
            "name" : "\u30b3\u30f3\u30bb\u30f3\u30c8\u70702",
            "scale" : [
                0.6000000238418579,
                1.100000023841858,
                0.004000000189989805
            ],
            "translation" : [
                1.4167660474777222,
                0,
                0
            ]
        },
        {
            "mesh" : 2,
            "name" : "\u30b3\u30f3\u30bb\u30f3\u30c8\u70703",
            "scale" : [
                0.6000000238418579,
                1.100000023841858,
                0.004000000189989805
            ],
            "translation" : [
                2.7063121795654297,
                0,
                0
            ]
        },
        {
            "mesh" : 3,
            "name" : "\u30b3\u30f3\u30bb\u30f3\u30c8\u767d1",
            "scale" : [
                0.2800000011920929,
                0.7200000286102295,
                0.004000000189989805
            ],
            "translation" : [
                4.288478851318359,
                0,
                0
            ]
        },
        {
            "mesh" : 4,
            "name" : "\u30b3\u30f3\u30bb\u30f3\u30c8\u767d2",
            "scale" : [
                0.2800000011920929,
                0.7200000286102295,
                0.004000000189989805
            ],
            "translation" : [
                3.66623592376709,
                0,
                0
            ]
        }
    ],
    "materials" : [
        {
            "doubleSided" : true,
            "emissiveFactor" : [
                0,
                0,
                0
            ],
            "name" : "\u30b3\u30f3\u30bb\u30f3\u30c8\u7070",
            "pbrMetallicRoughness" : {
                "baseColorFactor" : [
                    0.08353142440319061,
                    0.08353142440319061,
                    0.08353142440319061,
                    1
                ],
                "metallicFactor" : 0,
                "roughnessFactor" : 0.5
            }
        },
        {
            "doubleSided" : true,
            "emissiveFactor" : [
                0,
                0,
                0
            ],
            "name" : "\u30b3\u30f3\u30bb\u30f3\u30c8\u767d",
            "pbrMetallicRoughness" : {
                "baseColorFactor" : [
                    0.800000011920929,
                    0.800000011920929,
                    0.800000011920929,
                    1
                ],
                "metallicFactor" : 0,
                "roughnessFactor" : 1
            }
        }
    ],
    "meshes" : [
        {
            "name" : "\u7acb\u65b9\u4f53",
            "primitives" : [
                {
                    "attributes" : {
                        "POSITION" : 0,
                        "NORMAL" : 1,
                        "TEXCOORD_0" : 2
                    },
                    "indices" : 3,
                    "material" : 0
                }
            ]
        },
        {
            "name" : "\u7acb\u65b9\u4f53.001",
            "primitives" : [
                {
                    "attributes" : {
                        "POSITION" : 4,
                        "NORMAL" : 5,
                        "TEXCOORD_0" : 6
                    },
                    "indices" : 3,
                    "material" : 0
                }
            ]
        },
        {
            "name" : "\u7acb\u65b9\u4f53.002",
            "primitives" : [
                {
                    "attributes" : {
                        "POSITION" : 7,
                        "NORMAL" : 8,
                        "TEXCOORD_0" : 9
                    },
                    "indices" : 3,
                    "material" : 0
                }
            ]
        },
        {
            "name" : "\u7acb\u65b9\u4f53.003",
            "primitives" : [
                {
                    "attributes" : {
                        "POSITION" : 10,
                        "NORMAL" : 11,
                        "TEXCOORD_0" : 12
                    },
                    "indices" : 13,
                    "material" : 1
                }
            ]
        },
        {
            "name" : "\u7acb\u65b9\u4f53.005",
            "primitives" : [
                {
                    "attributes" : {
                        "POSITION" : 14,
                        "NORMAL" : 15,
                        "TEXCOORD_0" : 16
                    },
                    "indices" : 17,
                    "material" : 1
                }
            ]
        }
    ],
    "accessors" : [
        {
            "bufferView" : 0,
            "componentType" : 5126,
            "count" : 24,
            "max" : [
                1,
                1,
                1
            ],
            "min" : [
                -1,
                -1,
                -1
            ],
            "type" : "VEC3"
        },
        {
            "bufferView" : 1,
            "componentType" : 5126,
            "count" : 24,
            "type" : "VEC3"
        },
        {
            "bufferView" : 2,
            "componentType" : 5126,
            "count" : 24,
            "type" : "VEC2"
        },
        {
            "bufferView" : 3,
            "componentType" : 5123,
            "count" : 36,
            "type" : "SCALAR"
        },
        {
            "bufferView" : 4,
            "componentType" : 5126,
            "count" : 24,
            "max" : [
                1,
                1,
                1
            ],
            "min" : [
                -1,
                -1,
                -1
            ],
            "type" : "VEC3"
        },
        {
            "bufferView" : 5,
            "componentType" : 5126,
            "count" : 24,
            "type" : "VEC3"
        },
        {
            "bufferView" : 6,
            "componentType" : 5126,
            "count" : 24,
            "type" : "VEC2"
        },
        {
            "bufferView" : 7,
            "componentType" : 5126,
            "count" : 24,
            "max" : [
                1,
                1,
                1
            ],
            "min" : [
                -1,
                -1,
                -1
            ],
            "type" : "VEC3"
        },
        {
            "bufferView" : 8,
            "componentType" : 5126,
            "count" : 24,
            "type" : "VEC3"
        },
        {
            "bufferView" : 9,
            "componentType" : 5126,
            "count" : 24,
            "type" : "VEC2"
        },
        {
            "bufferView" : 10,
            "componentType" : 5126,
            "count" : 152,
            "max" : [
                1,
                1,
                1.0000019073486328
            ],
            "min" : [
                -1,
                -1,
                -1
            ],
            "type" : "VEC3"
        },
        {
            "bufferView" : 11,
            "componentType" : 5126,
            "count" : 152,
            "type" : "VEC3"
        },
        {
            "bufferView" : 12,
            "componentType" : 5126,
            "count" : 152,
            "type" : "VEC2"
        },
        {
            "bufferView" : 13,
            "componentType" : 5123,
            "count" : 276,
            "type" : "SCALAR"
        },
        {
            "bufferView" : 14,
            "componentType" : 5126,
            "count" : 152,
            "max" : [
                1,
                1,
                1.0000004768371582
            ],
            "min" : [
                -1,
                -1,
                -1.0000014305114746
            ],
            "type" : "VEC3"
        },
        {
            "bufferView" : 15,
            "componentType" : 5126,
            "count" : 152,
            "type" : "VEC3"
        },
        {
            "bufferView" : 16,
            "componentType" : 5126,
            "count" : 152,
            "type" : "VEC2"
        },
        {
            "bufferView" : 17,
            "componentType" : 5123,
            "count" : 276,
            "type" : "SCALAR"
        }
    ],
    "bufferViews" : [
        {
            "buffer" : 0,
            "byteLength" : 288,
            "byteOffset" : 0
        },
        {
            "buffer" : 0,
            "byteLength" : 288,
            "byteOffset" : 288
        },
        {
            "buffer" : 0,
            "byteLength" : 192,
            "byteOffset" : 576
        },
        {
            "buffer" : 0,
            "byteLength" : 72,
            "byteOffset" : 768
        },
        {
            "buffer" : 0,
            "byteLength" : 288,
            "byteOffset" : 840
        },
        {
            "buffer" : 0,
            "byteLength" : 288,
            "byteOffset" : 1128
        },
        {
            "buffer" : 0,
            "byteLength" : 192,
            "byteOffset" : 1416
        },
        {
            "buffer" : 0,
            "byteLength" : 288,
            "byteOffset" : 1608
        },
        {
            "buffer" : 0,
            "byteLength" : 288,
            "byteOffset" : 1896
        },
        {
            "buffer" : 0,
            "byteLength" : 192,
            "byteOffset" : 2184
        },
        {
            "buffer" : 0,
            "byteLength" : 1824,
            "byteOffset" : 2376
        },
        {
            "buffer" : 0,
            "byteLength" : 1824,
            "byteOffset" : 4200
        },
        {
            "buffer" : 0,
            "byteLength" : 1216,
            "byteOffset" : 6024
        },
        {
            "buffer" : 0,
            "byteLength" : 552,
            "byteOffset" : 7240
        },
        {
            "buffer" : 0,
            "byteLength" : 1824,
            "byteOffset" : 7792
        },
        {
            "buffer" : 0,
            "byteLength" : 1824,
            "byteOffset" : 9616
        },
        {
            "buffer" : 0,
            "byteLength" : 1216,
            "byteOffset" : 11440
        },
        {
            "buffer" : 0,
            "byteLength" : 552,
            "byteOffset" : 12656
        }
    ],
    "buffers" : [
        {
            "byteLength" : 13208,
            "uri" : "data:application/octet-stream;base64,"
        }
    ]
}
