{
    "asset" : {
        "generator" : "Khronos glTF Blender I/O v1.2.75",
        "version" : "2.0"
    },
    "scene" : 0,
    "scenes" : [
        {
            "name" : "Scene",
            "nodes" : [
                0,
                1
            ]
        }
    ],
    "nodes" : [
        {
            "mesh" : 0,
            "name" : "\u58ca\u308c\u305f\u58c11",
            "rotation" : [
                0.7071067690849304,
                0,
                0,
                0.7071067690849304
            ],
            "scale" : [
                1.8068050146102905,
                0.8844199180603027,
                0.8844199180603027
            ]
        },
        {
            "mesh" : 1,
            "name" : "\u58ca\u308c\u305f\u58c1\uff12",
            "rotation" : [
                0,
                0.7071067690849304,
                -0.7071067690849304,
                -3.0908619663705394e-08
            ],
            "scale" : [
                1.8068050146102905,
                0.8844199180603027,
                0.8844199180603027
            ],
            "translation" : [
                4.473489761352539,
                0,
                0
            ]
        }
    ],
    "materials" : [
        {
            "doubleSided" : true,
            "emissiveFactor" : [
                0,
                0,
                0
            ],
            "name" : "\u30ed\u30b7\u30a2\u30f3\u30d6\u30eb\u30fc",
            "pbrMetallicRoughness" : {
                "baseColorFactor" : [
                    0.35640019178390503,
                    0.6795424222946167,
                    0.5271152257919312,
                    1
                ],
                "metallicFactor" : 0,
                "roughnessFactor" : 0.8308823108673096
            }
        }
    ],
    "meshes" : [
        {
            "name" : "\u5e73\u9762.001",
            "primitives" : [
                {
                    "attributes" : {
                        "POSITION" : 0,
                        "NORMAL" : 1,
                        "TEXCOORD_0" : 2
                    },
                    "indices" : 3,
                    "material" : 0
                }
            ]
        },
        {
            "name" : "\u5e73\u9762.002",
            "primitives" : [
                {
                    "attributes" : {
                        "POSITION" : 4,
                        "NORMAL" : 5,
                        "TEXCOORD_0" : 6
                    },
                    "indices" : 3,
                    "material" : 0
                }
            ]
        }
    ],
    "accessors" : [
        {
            "bufferView" : 0,
            "componentType" : 5126,
            "count" : 734,
            "max" : [
                1.0524710416793823,
                0.2781520485877991,
                4.6944580078125
            ],
            "min" : [
                -0.9563723206520081,
                -3.7250626405693765e-07,
                -3.8542122840881348
            ],
            "type" : "VEC3"
        },
        {
            "bufferView" : 1,
            "componentType" : 5126,
            "count" : 734,
            "type" : "VEC3"
        },
        {
            "bufferView" : 2,
            "componentType" : 5126,
            "count" : 734,
            "type" : "VEC2"
        },
        {
            "bufferView" : 3,
            "componentType" : 5123,
            "count" : 1752,
            "type" : "SCALAR"
        },
        {
            "bufferView" : 4,
            "componentType" : 5126,
            "count" : 734,
            "max" : [
                1.0524710416793823,
                0.2781520485877991,
                4.6944580078125
            ],
            "min" : [
                -0.9563723206520081,
                -3.7250626405693765e-07,
                -3.8542122840881348
            ],
            "type" : "VEC3"
        },
        {
            "bufferView" : 5,
            "componentType" : 5126,
            "count" : 734,
            "type" : "VEC3"
        },
        {
            "bufferView" : 6,
            "componentType" : 5126,
            "count" : 734,
            "type" : "VEC2"
        }
    ],
    "bufferViews" : [
        {
            "buffer" : 0,
            "byteLength" : 8808,
            "byteOffset" : 0
        },
        {
            "buffer" : 0,
            "byteLength" : 8808,
            "byteOffset" : 8808
        },
        {
            "buffer" : 0,
            "byteLength" : 5872,
            "byteOffset" : 17616
        },
        {
            "buffer" : 0,
            "byteLength" : 3504,
            "byteOffset" : 23488
        },
        {
            "buffer" : 0,
            "byteLength" : 8808,
            "byteOffset" : 26992
        },
        {
            "buffer" : 0,
            "byteLength" : 8808,
            "byteOffset" : 35800
        },
        {
            "buffer" : 0,
            "byteLength" : 5872,
            "byteOffset" : 44608
        }
    ],
    "buffers" : [
        {
            "byteLength" : 50480,
            "uri" : "data:application/octet-stream;base64,"
        }
    ]
}
