{
    "asset" : {
        "generator" : "Khronos glTF Blender I/O v1.2.75",
        "version" : "2.0"
    },
    "scene" : 0,
    "scenes" : [
        {
            "name" : "Scene",
            "nodes" : [
                0,
                1,
                2
            ]
        }
    ],
    "nodes" : [
        {
            "mesh" : 0,
            "name" : "\u30d9\u30cb\u30e4",
            "scale" : [
                0.6000000238418579,
                0.4000000059604645,
                0.004000000189989805
            ]
        },
        {
            "mesh" : 1,
            "name" : "\u652f\u67f1.001",
            "scale" : [
                0.05000000074505806,
                0.5,
                0.05000000074505806
            ],
            "translation" : [
                0.7824799418449402,
                0,
                0
            ]
        },
        {
            "mesh" : 2,
            "name" : "\u652f\u67f1",
            "scale" : [
                0.05000000074505806,
                0.5,
                0.05000000074505806
            ],
            "translation" : [
                0.9768882989883423,
                0,
                0
            ]
        }
    ],
    "materials" : [
        {
            "doubleSided" : true,
            "emissiveFactor" : [
                0,
                0,
                0
            ],
            "name" : "\u30d9\u30cb\u30e4",
            "pbrMetallicRoughness" : {
                "baseColorFactor" : [
                    0.7991032600402832,
                    0.450785756111145,
                    0.16513225436210632,
                    1
                ],
                "metallicFactor" : 0,
                "roughnessFactor" : 0.5
            }
        }
    ],
    "meshes" : [
        {
            "name" : "\u7acb\u65b9\u4f53.035",
            "primitives" : [
                {
                    "attributes" : {
                        "POSITION" : 0,
                        "NORMAL" : 1,
                        "TEXCOORD_0" : 2
                    },
                    "indices" : 3,
                    "material" : 0
                }
            ]
        },
        {
            "name" : "\u7acb\u65b9\u4f53.036",
            "primitives" : [
                {
                    "attributes" : {
                        "POSITION" : 4,
                        "NORMAL" : 5,
                        "TEXCOORD_0" : 6
                    },
                    "indices" : 7,
                    "material" : 0
                }
            ]
        },
        {
            "name" : "\u7acb\u65b9\u4f53.042",
            "primitives" : [
                {
                    "attributes" : {
                        "POSITION" : 8,
                        "NORMAL" : 9,
                        "TEXCOORD_0" : 10
                    },
                    "indices" : 7,
                    "material" : 0
                }
            ]
        }
    ],
    "accessors" : [
        {
            "bufferView" : 0,
            "componentType" : 5126,
            "count" : 24,
            "max" : [
                1,
                1,
                1
            ],
            "min" : [
                -1,
                -1,
                -1
            ],
            "type" : "VEC3"
        },
        {
            "bufferView" : 1,
            "componentType" : 5126,
            "count" : 24,
            "type" : "VEC3"
        },
        {
            "bufferView" : 2,
            "componentType" : 5126,
            "count" : 24,
            "type" : "VEC2"
        },
        {
            "bufferView" : 3,
            "componentType" : 5123,
            "count" : 36,
            "type" : "SCALAR"
        },
        {
            "bufferView" : 4,
            "componentType" : 5126,
            "count" : 28,
            "max" : [
                1,
                0.9907252788543701,
                1
            ],
            "min" : [
                -1,
                -1,
                -1
            ],
            "type" : "VEC3"
        },
        {
            "bufferView" : 5,
            "componentType" : 5126,
            "count" : 28,
            "type" : "VEC3"
        },
        {
            "bufferView" : 6,
            "componentType" : 5126,
            "count" : 28,
            "type" : "VEC2"
        },
        {
            "bufferView" : 7,
            "componentType" : 5123,
            "count" : 48,
            "type" : "SCALAR"
        },
        {
            "bufferView" : 8,
            "componentType" : 5126,
            "count" : 28,
            "max" : [
                1,
                0.9907252788543701,
                1
            ],
            "min" : [
                -1,
                -1,
                -1
            ],
            "type" : "VEC3"
        },
        {
            "bufferView" : 9,
            "componentType" : 5126,
            "count" : 28,
            "type" : "VEC3"
        },
        {
            "bufferView" : 10,
            "componentType" : 5126,
            "count" : 28,
            "type" : "VEC2"
        }
    ],
    "bufferViews" : [
        {
            "buffer" : 0,
            "byteLength" : 288,
            "byteOffset" : 0
        },
        {
            "buffer" : 0,
            "byteLength" : 288,
            "byteOffset" : 288
        },
        {
            "buffer" : 0,
            "byteLength" : 192,
            "byteOffset" : 576
        },
        {
            "buffer" : 0,
            "byteLength" : 72,
            "byteOffset" : 768
        },
        {
            "buffer" : 0,
            "byteLength" : 336,
            "byteOffset" : 840
        },
        {
            "buffer" : 0,
            "byteLength" : 336,
            "byteOffset" : 1176
        },
        {
            "buffer" : 0,
            "byteLength" : 224,
            "byteOffset" : 1512
        },
        {
            "buffer" : 0,
            "byteLength" : 96,
            "byteOffset" : 1736
        },
        {
            "buffer" : 0,
            "byteLength" : 336,
            "byteOffset" : 1832
        },
        {
            "buffer" : 0,
            "byteLength" : 336,
            "byteOffset" : 2168
        },
        {
            "buffer" : 0,
            "byteLength" : 224,
            "byteOffset" : 2504
        }
    ],
    "buffers" : [
        {
            "byteLength" : 2728,
            "uri" : "data:application/octet-stream;base64,"
        }
    ]
}
