{
    "asset" : {
        "generator" : "Khronos glTF Blender I/O v1.2.75",
        "version" : "2.0"
    },
    "scene" : 0,
    "scenes" : [
        {
            "name" : "Scene",
            "nodes" : [
                0,
                1,
                2,
                3,
                4,
                5,
                6,
                7,
                8,
                9,
                10,
                11
            ]
        }
    ],
    "nodes" : [
        {
            "mesh" : 0,
            "name" : "\u5c0f\u4eba.005",
            "scale" : [
                0.020749036222696304,
                0.21491146087646484,
                0.020749036222696304
            ],
            "translation" : [
                0.8178829550743103,
                0,
                0
            ]
        },
        {
            "mesh" : 1,
            "name" : "\u5c0f\u4eba.006",
            "scale" : [
                0.020749036222696304,
                0.21491146087646484,
                0.020749036222696304
            ],
            "translation" : [
                0.9204954504966736,
                0,
                0
            ]
        },
        {
            "mesh" : 2,
            "name" : "\u5c0f\u4eba.003",
            "scale" : [
                0.020749036222696304,
                0.3593616187572479,
                0.020749036222696304
            ],
            "translation" : [
                1.3271450996398926,
                0,
                0
            ]
        },
        {
            "mesh" : 3,
            "name" : "\u5c0f\u4eba.004",
            "scale" : [
                0.020749036222696304,
                0.3593616187572479,
                0.020749036222696304
            ],
            "translation" : [
                1.4525604248046875,
                0,
                0
            ]
        },
        {
            "mesh" : 4,
            "name" : "\u5c0f\u4eba.007",
            "scale" : [
                0.025957461446523666,
                0.025957461446523666,
                0.025957461446523666
            ],
            "translation" : [
                0.4340360164642334,
                0,
                0.8705729842185974
            ]
        },
        {
            "mesh" : 5,
            "name" : "\u5c0f\u4eba.008",
            "scale" : [
                0.025957461446523666,
                0.025957461446523666,
                0.025957461446523666
            ],
            "translation" : [
                0.5670522451400757,
                0,
                0.7547511458396912
            ]
        },
        {
            "mesh" : 6,
            "name" : "\u5c0f\u4eba.009",
            "scale" : [
                0.025957461446523666,
                0.025957461446523666,
                0.025957461446523666
            ],
            "translation" : [
                0.6772657632827759,
                0,
                0.6618391275405884
            ]
        },
        {
            "mesh" : 7,
            "name" : "\u5c0f\u4eba.001",
            "scale" : [
                0.15299999713897705,
                0.2549999952316284,
                0.15299999713897705
            ],
            "translation" : [
                -1.3005568981170654,
                0,
                3.364833354949951
            ]
        },
        {
            "mesh" : 8,
            "name" : "\u5c0f\u4eba.002",
            "scale" : [
                0.3059999942779541,
                0.5099999904632568,
                0.3059999942779541
            ],
            "translation" : [
                0.031186819076538086,
                0,
                2.243696689605713
            ]
        },
        {
            "mesh" : 9,
            "name" : "\u5c0f\u4eba.010",
            "scale" : [
                0.20399999618530273,
                0.20399999618530273,
                0.20399999618530273
            ],
            "translation" : [
                -0.8932714462280273,
                0,
                2.9594507217407227
            ]
        },
        {
            "mesh" : 10,
            "name" : "\u5c0f\u4eba.011",
            "scale" : [
                0.014734593220055103,
                0.03924257308244705,
                0.024976102635264397
            ],
            "translation" : [
                -0.47047436237335205,
                0,
                2.576237201690674
            ]
        },
        {
            "mesh" : 11,
            "name" : "\u5c0f\u4eba",
            "scale" : [
                0.014734593220055103,
                0.03924257308244705,
                0.024976104497909546
            ],
            "translation" : [
                -0.5616855621337891,
                0,
                2.668081760406494
            ]
        }
    ],
    "materials" : [
        {
            "doubleSided" : true,
            "emissiveFactor" : [
                0,
                0,
                0
            ],
            "name" : "\u5c0f\u4eba,\u808c",
            "pbrMetallicRoughness" : {
                "baseColorFactor" : [
                    0.8000000715255737,
                    0.35171324014663696,
                    0.33760738372802734,
                    1
                ],
                "metallicFactor" : 0,
                "roughnessFactor" : 0.5
            }
        },
        {
            "doubleSided" : true,
            "emissiveFactor" : [
                0,
                0,
                0
            ],
            "name" : "\u5c0f\u4eba.\u30dc\u30bf\u30f3",
            "pbrMetallicRoughness" : {
                "baseColorFactor" : [
                    0,
                    0,
                    0,
                    1
                ],
                "metallicFactor" : 0,
                "roughnessFactor" : 0.5
            }
        },
        {
            "doubleSided" : true,
            "emissiveFactor" : [
                0,
                0,
                0
            ],
            "name" : "\u5c0f\u4eba.\u670d",
            "pbrMetallicRoughness" : {
                "baseColorFactor" : [
                    0.31036022305488586,
                    0.12953048944473267,
                    0.8000000715255737,
                    1
                ],
                "metallicFactor" : 0,
                "roughnessFactor" : 0.5
            }
        },
        {
            "doubleSided" : true,
            "emissiveFactor" : [
                0,
                0,
                0
            ],
            "name" : "\u5c0f\u4eba.\u76ee",
            "pbrMetallicRoughness" : {
                "baseColorFactor" : [
                    0.004895683843642473,
                    0.004895683843642473,
                    0.004895683843642473,
                    1
                ],
                "metallicFactor" : 0,
                "roughnessFactor" : 0.5
            }
        }
    ],
    "meshes" : [
        {
            "name" : "\u5186\u67f1.006",
            "primitives" : [
                {
                    "attributes" : {
                        "POSITION" : 0,
                        "NORMAL" : 1,
                        "TEXCOORD_0" : 2
                    },
                    "indices" : 3,
                    "material" : 0
                }
            ]
        },
        {
            "name" : "\u5186\u67f1.015",
            "primitives" : [
                {
                    "attributes" : {
                        "POSITION" : 4,
                        "NORMAL" : 5,
                        "TEXCOORD_0" : 6
                    },
                    "indices" : 3,
                    "material" : 0
                }
            ]
        },
        {
            "name" : "\u5186\u67f1.016",
            "primitives" : [
                {
                    "attributes" : {
                        "POSITION" : 7,
                        "NORMAL" : 8,
                        "TEXCOORD_0" : 9
                    },
                    "indices" : 3,
                    "material" : 0
                }
            ]
        },
        {
            "name" : "\u5186\u67f1.021",
            "primitives" : [
                {
                    "attributes" : {
                        "POSITION" : 10,
                        "NORMAL" : 11,
                        "TEXCOORD_0" : 12
                    },
                    "indices" : 3,
                    "material" : 0
                }
            ]
        },
        {
            "name" : "\u5186\u67f1.022",
            "primitives" : [
                {
                    "attributes" : {
                        "POSITION" : 13,
                        "NORMAL" : 14,
                        "TEXCOORD_0" : 15
                    },
                    "indices" : 3,
                    "material" : 1
                }
            ]
        },
        {
            "name" : "\u5186\u67f1.023",
            "primitives" : [
                {
                    "attributes" : {
                        "POSITION" : 16,
                        "NORMAL" : 17,
                        "TEXCOORD_0" : 18
                    },
                    "indices" : 3,
                    "material" : 1
                }
            ]
        },
        {
            "name" : "\u5186\u67f1.024",
            "primitives" : [
                {
                    "attributes" : {
                        "POSITION" : 19,
                        "NORMAL" : 20,
                        "TEXCOORD_0" : 21
                    },
                    "indices" : 3,
                    "material" : 1
                }
            ]
        },
        {
            "name" : "\u5186\u9310.001",
            "primitives" : [
                {
                    "attributes" : {
                        "POSITION" : 22,
                        "NORMAL" : 23,
                        "TEXCOORD_0" : 24
                    },
                    "indices" : 25,
                    "material" : 2
                }
            ]
        },
        {
            "name" : "\u5186\u9310.004",
            "primitives" : [
                {
                    "attributes" : {
                        "POSITION" : 26,
                        "NORMAL" : 27,
                        "TEXCOORD_0" : 28
                    },
                    "indices" : 29,
                    "material" : 2
                }
            ]
        },
        {
            "name" : "\u7403.001",
            "primitives" : [
                {
                    "attributes" : {
                        "POSITION" : 30,
                        "NORMAL" : 31,
                        "TEXCOORD_0" : 32
                    },
                    "indices" : 33,
                    "material" : 0
                }
            ]
        },
        {
            "name" : "\u7403.002",
            "primitives" : [
                {
                    "attributes" : {
                        "POSITION" : 34,
                        "NORMAL" : 35,
                        "TEXCOORD_0" : 36
                    },
                    "indices" : 37,
                    "material" : 3
                }
            ]
        },
        {
            "name" : "\u7403.006",
            "primitives" : [
                {
                    "attributes" : {
                        "POSITION" : 38,
                        "NORMAL" : 39,
                        "TEXCOORD_0" : 40
                    },
                    "indices" : 37,
                    "material" : 3
                }
            ]
        }
    ],
    "accessors" : [
        {
            "bufferView" : 0,
            "componentType" : 5126,
            "count" : 192,
            "max" : [
                1,
                1,
                1
            ],
            "min" : [
                -1,
                -1,
                -1
            ],
            "type" : "VEC3"
        },
        {
            "bufferView" : 1,
            "componentType" : 5126,
            "count" : 192,
            "type" : "VEC3"
        },
        {
            "bufferView" : 2,
            "componentType" : 5126,
            "count" : 192,
            "type" : "VEC2"
        },
        {
            "bufferView" : 3,
            "componentType" : 5123,
            "count" : 372,
            "type" : "SCALAR"
        },
        {
            "bufferView" : 4,
            "componentType" : 5126,
            "count" : 192,
            "max" : [
                1,
                1,
                1
            ],
            "min" : [
                -1,
                -1,
                -1
            ],
            "type" : "VEC3"
        },
        {
            "bufferView" : 5,
            "componentType" : 5126,
            "count" : 192,
            "type" : "VEC3"
        },
        {
            "bufferView" : 6,
            "componentType" : 5126,
            "count" : 192,
            "type" : "VEC2"
        },
        {
            "bufferView" : 7,
            "componentType" : 5126,
            "count" : 192,
            "max" : [
                1,
                1,
                1
            ],
            "min" : [
                -1,
                -1,
                -1
            ],
            "type" : "VEC3"
        },
        {
            "bufferView" : 8,
            "componentType" : 5126,
            "count" : 192,
            "type" : "VEC3"
        },
        {
            "bufferView" : 9,
            "componentType" : 5126,
            "count" : 192,
            "type" : "VEC2"
        },
        {
            "bufferView" : 10,
            "componentType" : 5126,
            "count" : 192,
            "max" : [
                1,
                1,
                1
            ],
            "min" : [
                -1,
                -1,
                -1
            ],
            "type" : "VEC3"
        },
        {
            "bufferView" : 11,
            "componentType" : 5126,
            "count" : 192,
            "type" : "VEC3"
        },
        {
            "bufferView" : 12,
            "componentType" : 5126,
            "count" : 192,
            "type" : "VEC2"
        },
        {
            "bufferView" : 13,
            "componentType" : 5126,
            "count" : 192,
            "max" : [
                1,
                1,
                1
            ],
            "min" : [
                -1,
                -1,
                -1
            ],
            "type" : "VEC3"
        },
        {
            "bufferView" : 14,
            "componentType" : 5126,
            "count" : 192,
            "type" : "VEC3"
        },
        {
            "bufferView" : 15,
            "componentType" : 5126,
            "count" : 192,
            "type" : "VEC2"
        },
        {
            "bufferView" : 16,
            "componentType" : 5126,
            "count" : 192,
            "max" : [
                1,
                1,
                1
            ],
            "min" : [
                -1,
                -1,
                -1
            ],
            "type" : "VEC3"
        },
        {
            "bufferView" : 17,
            "componentType" : 5126,
            "count" : 192,
            "type" : "VEC3"
        },
        {
            "bufferView" : 18,
            "componentType" : 5126,
            "count" : 192,
            "type" : "VEC2"
        },
        {
            "bufferView" : 19,
            "componentType" : 5126,
            "count" : 192,
            "max" : [
                1,
                1,
                1
            ],
            "min" : [
                -1,
                -1,
                -1
            ],
            "type" : "VEC3"
        },
        {
            "bufferView" : 20,
            "componentType" : 5126,
            "count" : 192,
            "type" : "VEC3"
        },
        {
            "bufferView" : 21,
            "componentType" : 5126,
            "count" : 192,
            "type" : "VEC2"
        },
        {
            "bufferView" : 22,
            "componentType" : 5126,
            "count" : 65,
            "max" : [
                1,
                1.538794994354248,
                1
            ],
            "min" : [
                -1,
                -0.46120506525039673,
                -1
            ],
            "type" : "VEC3"
        },
        {
            "bufferView" : 23,
            "componentType" : 5126,
            "count" : 65,
            "type" : "VEC3"
        },
        {
            "bufferView" : 24,
            "componentType" : 5126,
            "count" : 65,
            "type" : "VEC2"
        },
        {
            "bufferView" : 25,
            "componentType" : 5123,
            "count" : 186,
            "type" : "SCALAR"
        },
        {
            "bufferView" : 26,
            "componentType" : 5126,
            "count" : 128,
            "max" : [
                1,
                1.538794994354248,
                1
            ],
            "min" : [
                -1,
                -0.46120506525039673,
                -1
            ],
            "type" : "VEC3"
        },
        {
            "bufferView" : 27,
            "componentType" : 5126,
            "count" : 128,
            "type" : "VEC3"
        },
        {
            "bufferView" : 28,
            "componentType" : 5126,
            "count" : 128,
            "type" : "VEC2"
        },
        {
            "bufferView" : 29,
            "componentType" : 5123,
            "count" : 186,
            "type" : "SCALAR"
        },
        {
            "bufferView" : 30,
            "componentType" : 5126,
            "count" : 1984,
            "max" : [
                0.9999997615814209,
                1,
                0.9999998211860657
            ],
            "min" : [
                -0.9999999403953552,
                -1,
                -1.0000003576278687
            ],
            "type" : "VEC3"
        },
        {
            "bufferView" : 31,
            "componentType" : 5126,
            "count" : 1984,
            "type" : "VEC3"
        },
        {
            "bufferView" : 32,
            "componentType" : 5126,
            "count" : 1984,
            "type" : "VEC2"
        },
        {
            "bufferView" : 33,
            "componentType" : 5123,
            "count" : 2880,
            "type" : "SCALAR"
        },
        {
            "bufferView" : 34,
            "componentType" : 5126,
            "count" : 1984,
            "max" : [
                1.0000001192092896,
                1,
                1.0000001192092896
            ],
            "min" : [
                -0.9999995827674866,
                -1,
                -1
            ],
            "type" : "VEC3"
        },
        {
            "bufferView" : 35,
            "componentType" : 5126,
            "count" : 1984,
            "type" : "VEC3"
        },
        {
            "bufferView" : 36,
            "componentType" : 5126,
            "count" : 1984,
            "type" : "VEC2"
        },
        {
            "bufferView" : 37,
            "componentType" : 5123,
            "count" : 2880,
            "type" : "SCALAR"
        },
        {
            "bufferView" : 38,
            "componentType" : 5126,
            "count" : 1984,
            "max" : [
                1.0000001192092896,
                1,
                1.0000001192092896
            ],
            "min" : [
                -0.9999995827674866,
                -1,
                -1
            ],
            "type" : "VEC3"
        },
        {
            "bufferView" : 39,
            "componentType" : 5126,
            "count" : 1984,
            "type" : "VEC3"
        },
        {
            "bufferView" : 40,
            "componentType" : 5126,
            "count" : 1984,
            "type" : "VEC2"
        }
    ],
    "bufferViews" : [
        {
            "buffer" : 0,
            "byteLength" : 2304,
            "byteOffset" : 0
        },
        {
            "buffer" : 0,
            "byteLength" : 2304,
            "byteOffset" : 2304
        },
        {
            "buffer" : 0,
            "byteLength" : 1536,
            "byteOffset" : 4608
        },
        {
            "buffer" : 0,
            "byteLength" : 744,
            "byteOffset" : 6144
        },
        {
            "buffer" : 0,
            "byteLength" : 2304,
            "byteOffset" : 6888
        },
        {
            "buffer" : 0,
            "byteLength" : 2304,
            "byteOffset" : 9192
        },
        {
            "buffer" : 0,
            "byteLength" : 1536,
            "byteOffset" : 11496
        },
        {
            "buffer" : 0,
            "byteLength" : 2304,
            "byteOffset" : 13032
        },
        {
            "buffer" : 0,
            "byteLength" : 2304,
            "byteOffset" : 15336
        },
        {
            "buffer" : 0,
            "byteLength" : 1536,
            "byteOffset" : 17640
        },
        {
            "buffer" : 0,
            "byteLength" : 2304,
            "byteOffset" : 19176
        },
        {
            "buffer" : 0,
            "byteLength" : 2304,
            "byteOffset" : 21480
        },
        {
            "buffer" : 0,
            "byteLength" : 1536,
            "byteOffset" : 23784
        },
        {
            "buffer" : 0,
            "byteLength" : 2304,
            "byteOffset" : 25320
        },
        {
            "buffer" : 0,
            "byteLength" : 2304,
            "byteOffset" : 27624
        },
        {
            "buffer" : 0,
            "byteLength" : 1536,
            "byteOffset" : 29928
        },
        {
            "buffer" : 0,
            "byteLength" : 2304,
            "byteOffset" : 31464
        },
        {
            "buffer" : 0,
            "byteLength" : 2304,
            "byteOffset" : 33768
        },
        {
            "buffer" : 0,
            "byteLength" : 1536,
            "byteOffset" : 36072
        },
        {
            "buffer" : 0,
            "byteLength" : 2304,
            "byteOffset" : 37608
        },
        {
            "buffer" : 0,
            "byteLength" : 2304,
            "byteOffset" : 39912
        },
        {
            "buffer" : 0,
            "byteLength" : 1536,
            "byteOffset" : 42216
        },
        {
            "buffer" : 0,
            "byteLength" : 780,
            "byteOffset" : 43752
        },
        {
            "buffer" : 0,
            "byteLength" : 780,
            "byteOffset" : 44532
        },
        {
            "buffer" : 0,
            "byteLength" : 520,
            "byteOffset" : 45312
        },
        {
            "buffer" : 0,
            "byteLength" : 372,
            "byteOffset" : 45832
        },
        {
            "buffer" : 0,
            "byteLength" : 1536,
            "byteOffset" : 46204
        },
        {
            "buffer" : 0,
            "byteLength" : 1536,
            "byteOffset" : 47740
        },
        {
            "buffer" : 0,
            "byteLength" : 1024,
            "byteOffset" : 49276
        },
        {
            "buffer" : 0,
            "byteLength" : 372,
            "byteOffset" : 50300
        },
        {
            "buffer" : 0,
            "byteLength" : 23808,
            "byteOffset" : 50672
        },
        {
            "buffer" : 0,
            "byteLength" : 23808,
            "byteOffset" : 74480
        },
        {
            "buffer" : 0,
            "byteLength" : 15872,
            "byteOffset" : 98288
        },
        {
            "buffer" : 0,
            "byteLength" : 5760,
            "byteOffset" : 114160
        },
        {
            "buffer" : 0,
            "byteLength" : 23808,
            "byteOffset" : 119920
        },
        {
            "buffer" : 0,
            "byteLength" : 23808,
            "byteOffset" : 143728
        },
        {
            "buffer" : 0,
            "byteLength" : 15872,
            "byteOffset" : 167536
        },
        {
            "buffer" : 0,
            "byteLength" : 5760,
            "byteOffset" : 183408
        },
        {
            "buffer" : 0,
            "byteLength" : 23808,
            "byteOffset" : 189168
        },
        {
            "buffer" : 0,
            "byteLength" : 23808,
            "byteOffset" : 212976
        },
        {
            "buffer" : 0,
            "byteLength" : 15872,
            "byteOffset" : 236784
        }
    ],
    "buffers" : [
        {
            "byteLength" : 252656,
            "uri" : "data:application/octet-stream;base64,"
        }
    ]
}
