{
    "asset" : {
        "generator" : "Khronos glTF Blender I/O v1.2.75",
        "version" : "2.0"
    },
    "scene" : 0,
    "scenes" : [
        {
            "name" : "Scene",
            "nodes" : [
                0,
                1,
                2,
                3,
                4,
                5,
                6,
                7,
                8,
                9,
                10
            ]
        }
    ],
    "nodes" : [
        {
            "mesh" : 0,
            "name" : "\u770b\u677f",
            "scale" : [
                1.7999999523162842,
                0.8999999761581421,
                0.004000000189989805
            ]
        },
        {
            "mesh" : 1,
            "name" : "\u770b\u677f.002",
            "scale" : [
                0.10000000149011612,
                0.8999999761581421,
                0.03999999910593033
            ],
            "translation" : [
                2.219578266143799,
                0,
                0
            ]
        },
        {
            "mesh" : 2,
            "name" : "\u770b\u677f.004",
            "scale" : [
                1.7999999523162842,
                0.10000000149011612,
                0.03999999910593033
            ],
            "translation" : [
                4.676776885986328,
                0.38855478167533875,
                0
            ]
        },
        {
            "mesh" : 3,
            "name" : "\u770b\u677f.001",
            "rotation" : [
                0,
                0,
                -1,
                -4.371138828673793e-08
            ],
            "scale" : [
                0.10000000149011612,
                0.8999999761581421,
                0.03999999910593033
            ],
            "translation" : [
                2.6110572814941406,
                0,
                0
            ]
        },
        {
            "mesh" : 4,
            "name" : "\u770b\u677f.003",
            "rotation" : [
                0,
                0,
                -1,
                -4.371138828673793e-08
            ],
            "scale" : [
                1.7999999523162842,
                0.10000000149011612,
                0.03999999910593033
            ],
            "translation" : [
                4.676776885986328,
                -0.1915425956249237,
                0
            ]
        },
        {
            "mesh" : 5,
            "name" : "\u5869\u30d3",
            "scale" : [
                0.07000000029802322,
                1,
                0.07000000029802322
            ],
            "translation" : [
                7.634215831756592,
                0,
                0
            ]
        },
        {
            "mesh" : 6,
            "name" : "\u5869\u30d3.001",
            "scale" : [
                0.07000000029802322,
                1,
                0.07000000029802322
            ],
            "translation" : [
                7.152624607086182,
                0,
                0
            ]
        },
        {
            "mesh" : 7,
            "name" : "\u5869\u30d3.002",
            "scale" : [
                0.07000000029802322,
                1,
                0.07000000029802322
            ],
            "translation" : [
                6.906357288360596,
                0,
                0
            ]
        },
        {
            "mesh" : 8,
            "name" : "\u5869\u30d3.003",
            "scale" : [
                0.07000000029802322,
                1,
                0.07000000029802322
            ],
            "translation" : [
                7.420783519744873,
                0,
                0
            ]
        },
        {
            "mesh" : 9,
            "name" : "\u5869\u30d3.004",
            "scale" : [
                0.07000000029802322,
                2,
                0.07000000029802322
            ],
            "translation" : [
                8.06655216217041,
                0,
                0
            ]
        },
        {
            "mesh" : 10,
            "name" : "\u5869\u30d3.005",
            "scale" : [
                0.07000000029802322,
                2,
                0.07000000029802322
            ],
            "translation" : [
                8.351128578186035,
                0,
                0
            ]
        }
    ],
    "materials" : [
        {
            "doubleSided" : true,
            "emissiveFactor" : [
                0,
                0,
                0
            ],
            "name" : "\u6728\u6750",
            "pbrMetallicRoughness" : {
                "baseColorFactor" : [
                    0.7991031408309937,
                    0.38642942905426025,
                    0.1356334090232849,
                    1
                ],
                "metallicFactor" : 0,
                "roughnessFactor" : 0.5
            }
        },
        {
            "doubleSided" : true,
            "emissiveFactor" : [
                0,
                0,
                0
            ],
            "name" : "\u5869\u30d3",
            "pbrMetallicRoughness" : {
                "baseColorFactor" : [
                    0.23839765787124634,
                    0.28314879536628723,
                    0.3515326678752899,
                    1
                ],
                "metallicFactor" : 0,
                "roughnessFactor" : 0.9166666865348816
            }
        }
    ],
    "meshes" : [
        {
            "name" : "Cube",
            "primitives" : [
                {
                    "attributes" : {
                        "POSITION" : 0,
                        "NORMAL" : 1,
                        "TEXCOORD_0" : 2
                    },
                    "indices" : 3,
                    "material" : 0
                }
            ]
        },
        {
            "name" : "Cube.001",
            "primitives" : [
                {
                    "attributes" : {
                        "POSITION" : 4,
                        "NORMAL" : 5,
                        "TEXCOORD_0" : 6
                    },
                    "indices" : 7,
                    "material" : 0
                }
            ]
        },
        {
            "name" : "Cube.004",
            "primitives" : [
                {
                    "attributes" : {
                        "POSITION" : 8,
                        "NORMAL" : 9,
                        "TEXCOORD_0" : 10
                    },
                    "indices" : 11,
                    "material" : 0
                }
            ]
        },
        {
            "name" : "Cube.009",
            "primitives" : [
                {
                    "attributes" : {
                        "POSITION" : 12,
                        "NORMAL" : 13,
                        "TEXCOORD_0" : 14
                    },
                    "indices" : 7,
                    "material" : 0
                }
            ]
        },
        {
            "name" : "Cube.012",
            "primitives" : [
                {
                    "attributes" : {
                        "POSITION" : 15,
                        "NORMAL" : 16,
                        "TEXCOORD_0" : 17
                    },
                    "indices" : 11,
                    "material" : 0
                }
            ]
        },
        {
            "name" : "\u5186\u67f1",
            "primitives" : [
                {
                    "attributes" : {
                        "POSITION" : 18,
                        "NORMAL" : 19,
                        "TEXCOORD_0" : 20
                    },
                    "indices" : 21,
                    "material" : 1
                }
            ]
        },
        {
            "name" : "\u5186\u67f1.001",
            "primitives" : [
                {
                    "attributes" : {
                        "POSITION" : 22,
                        "NORMAL" : 23,
                        "TEXCOORD_0" : 24
                    },
                    "indices" : 21,
                    "material" : 1
                }
            ]
        },
        {
            "name" : "\u5186\u67f1.002",
            "primitives" : [
                {
                    "attributes" : {
                        "POSITION" : 25,
                        "NORMAL" : 26,
                        "TEXCOORD_0" : 27
                    },
                    "indices" : 21,
                    "material" : 1
                }
            ]
        },
        {
            "name" : "\u5186\u67f1.003",
            "primitives" : [
                {
                    "attributes" : {
                        "POSITION" : 28,
                        "NORMAL" : 29,
                        "TEXCOORD_0" : 30
                    },
                    "indices" : 21,
                    "material" : 1
                }
            ]
        },
        {
            "name" : "\u5186\u67f1.004",
            "primitives" : [
                {
                    "attributes" : {
                        "POSITION" : 31,
                        "NORMAL" : 32,
                        "TEXCOORD_0" : 33
                    },
                    "indices" : 21,
                    "material" : 1
                }
            ]
        },
        {
            "name" : "\u5186\u67f1.005",
            "primitives" : [
                {
                    "attributes" : {
                        "POSITION" : 34,
                        "NORMAL" : 35,
                        "TEXCOORD_0" : 36
                    },
                    "indices" : 21,
                    "material" : 1
                }
            ]
        }
    ],
    "accessors" : [
        {
            "bufferView" : 0,
            "componentType" : 5126,
            "count" : 24,
            "max" : [
                1,
                1,
                1
            ],
            "min" : [
                -1,
                -1,
                -1
            ],
            "type" : "VEC3"
        },
        {
            "bufferView" : 1,
            "componentType" : 5126,
            "count" : 24,
            "type" : "VEC3"
        },
        {
            "bufferView" : 2,
            "componentType" : 5126,
            "count" : 24,
            "type" : "VEC2"
        },
        {
            "bufferView" : 3,
            "componentType" : 5123,
            "count" : 36,
            "type" : "SCALAR"
        },
        {
            "bufferView" : 4,
            "componentType" : 5126,
            "count" : 26,
            "max" : [
                1,
                0.9928123950958252,
                1
            ],
            "min" : [
                -1,
                -1,
                -1
            ],
            "type" : "VEC3"
        },
        {
            "bufferView" : 5,
            "componentType" : 5126,
            "count" : 26,
            "type" : "VEC3"
        },
        {
            "bufferView" : 6,
            "componentType" : 5126,
            "count" : 26,
            "type" : "VEC2"
        },
        {
            "bufferView" : 7,
            "componentType" : 5123,
            "count" : 42,
            "type" : "SCALAR"
        },
        {
            "bufferView" : 8,
            "componentType" : 5126,
            "count" : 36,
            "max" : [
                1,
                1,
                1
            ],
            "min" : [
                -1,
                -1,
                -1
            ],
            "type" : "VEC3"
        },
        {
            "bufferView" : 9,
            "componentType" : 5126,
            "count" : 36,
            "type" : "VEC3"
        },
        {
            "bufferView" : 10,
            "componentType" : 5126,
            "count" : 36,
            "type" : "VEC2"
        },
        {
            "bufferView" : 11,
            "componentType" : 5123,
            "count" : 60,
            "type" : "SCALAR"
        },
        {
            "bufferView" : 12,
            "componentType" : 5126,
            "count" : 26,
            "max" : [
                1,
                0.9928123950958252,
                1
            ],
            "min" : [
                -1,
                -1,
                -1
            ],
            "type" : "VEC3"
        },
        {
            "bufferView" : 13,
            "componentType" : 5126,
            "count" : 26,
            "type" : "VEC3"
        },
        {
            "bufferView" : 14,
            "componentType" : 5126,
            "count" : 26,
            "type" : "VEC2"
        },
        {
            "bufferView" : 15,
            "componentType" : 5126,
            "count" : 36,
            "max" : [
                1,
                1,
                1
            ],
            "min" : [
                -1,
                -1,
                -1
            ],
            "type" : "VEC3"
        },
        {
            "bufferView" : 16,
            "componentType" : 5126,
            "count" : 36,
            "type" : "VEC3"
        },
        {
            "bufferView" : 17,
            "componentType" : 5126,
            "count" : 36,
            "type" : "VEC2"
        },
        {
            "bufferView" : 18,
            "componentType" : 5126,
            "count" : 192,
            "max" : [
                1,
                1,
                1
            ],
            "min" : [
                -1,
                -1,
                -1
            ],
            "type" : "VEC3"
        },
        {
            "bufferView" : 19,
            "componentType" : 5126,
            "count" : 192,
            "type" : "VEC3"
        },
        {
            "bufferView" : 20,
            "componentType" : 5126,
            "count" : 192,
            "type" : "VEC2"
        },
        {
            "bufferView" : 21,
            "componentType" : 5123,
            "count" : 372,
            "type" : "SCALAR"
        },
        {
            "bufferView" : 22,
            "componentType" : 5126,
            "count" : 192,
            "max" : [
                1,
                1,
                1
            ],
            "min" : [
                -1,
                -1,
                -1
            ],
            "type" : "VEC3"
        },
        {
            "bufferView" : 23,
            "componentType" : 5126,
            "count" : 192,
            "type" : "VEC3"
        },
        {
            "bufferView" : 24,
            "componentType" : 5126,
            "count" : 192,
            "type" : "VEC2"
        },
        {
            "bufferView" : 25,
            "componentType" : 5126,
            "count" : 192,
            "max" : [
                1,
                1,
                1
            ],
            "min" : [
                -1,
                -1,
                -1
            ],
            "type" : "VEC3"
        },
        {
            "bufferView" : 26,
            "componentType" : 5126,
            "count" : 192,
            "type" : "VEC3"
        },
        {
            "bufferView" : 27,
            "componentType" : 5126,
            "count" : 192,
            "type" : "VEC2"
        },
        {
            "bufferView" : 28,
            "componentType" : 5126,
            "count" : 192,
            "max" : [
                1,
                1,
                1
            ],
            "min" : [
                -1,
                -1,
                -1
            ],
            "type" : "VEC3"
        },
        {
            "bufferView" : 29,
            "componentType" : 5126,
            "count" : 192,
            "type" : "VEC3"
        },
        {
            "bufferView" : 30,
            "componentType" : 5126,
            "count" : 192,
            "type" : "VEC2"
        },
        {
            "bufferView" : 31,
            "componentType" : 5126,
            "count" : 192,
            "max" : [
                1,
                1,
                1
            ],
            "min" : [
                -1,
                -1,
                -1
            ],
            "type" : "VEC3"
        },
        {
            "bufferView" : 32,
            "componentType" : 5126,
            "count" : 192,
            "type" : "VEC3"
        },
        {
            "bufferView" : 33,
            "componentType" : 5126,
            "count" : 192,
            "type" : "VEC2"
        },
        {
            "bufferView" : 34,
            "componentType" : 5126,
            "count" : 192,
            "max" : [
                1,
                1,
                1
            ],
            "min" : [
                -1,
                -1,
                -1
            ],
            "type" : "VEC3"
        },
        {
            "bufferView" : 35,
            "componentType" : 5126,
            "count" : 192,
            "type" : "VEC3"
        },
        {
            "bufferView" : 36,
            "componentType" : 5126,
            "count" : 192,
            "type" : "VEC2"
        }
    ],
    "bufferViews" : [
        {
            "buffer" : 0,
            "byteLength" : 288,
            "byteOffset" : 0
        },
        {
            "buffer" : 0,
            "byteLength" : 288,
            "byteOffset" : 288
        },
        {
            "buffer" : 0,
            "byteLength" : 192,
            "byteOffset" : 576
        },
        {
            "buffer" : 0,
            "byteLength" : 72,
            "byteOffset" : 768
        },
        {
            "buffer" : 0,
            "byteLength" : 312,
            "byteOffset" : 840
        },
        {
            "buffer" : 0,
            "byteLength" : 312,
            "byteOffset" : 1152
        },
        {
            "buffer" : 0,
            "byteLength" : 208,
            "byteOffset" : 1464
        },
        {
            "buffer" : 0,
            "byteLength" : 84,
            "byteOffset" : 1672
        },
        {
            "buffer" : 0,
            "byteLength" : 432,
            "byteOffset" : 1756
        },
        {
            "buffer" : 0,
            "byteLength" : 432,
            "byteOffset" : 2188
        },
        {
            "buffer" : 0,
            "byteLength" : 288,
            "byteOffset" : 2620
        },
        {
            "buffer" : 0,
            "byteLength" : 120,
            "byteOffset" : 2908
        },
        {
            "buffer" : 0,
            "byteLength" : 312,
            "byteOffset" : 3028
        },
        {
            "buffer" : 0,
            "byteLength" : 312,
            "byteOffset" : 3340
        },
        {
            "buffer" : 0,
            "byteLength" : 208,
            "byteOffset" : 3652
        },
        {
            "buffer" : 0,
            "byteLength" : 432,
            "byteOffset" : 3860
        },
        {
            "buffer" : 0,
            "byteLength" : 432,
            "byteOffset" : 4292
        },
        {
            "buffer" : 0,
            "byteLength" : 288,
            "byteOffset" : 4724
        },
        {
            "buffer" : 0,
            "byteLength" : 2304,
            "byteOffset" : 5012
        },
        {
            "buffer" : 0,
            "byteLength" : 2304,
            "byteOffset" : 7316
        },
        {
            "buffer" : 0,
            "byteLength" : 1536,
            "byteOffset" : 9620
        },
        {
            "buffer" : 0,
            "byteLength" : 744,
            "byteOffset" : 11156
        },
        {
            "buffer" : 0,
            "byteLength" : 2304,
            "byteOffset" : 11900
        },
        {
            "buffer" : 0,
            "byteLength" : 2304,
            "byteOffset" : 14204
        },
        {
            "buffer" : 0,
            "byteLength" : 1536,
            "byteOffset" : 16508
        },
        {
            "buffer" : 0,
            "byteLength" : 2304,
            "byteOffset" : 18044
        },
        {
            "buffer" : 0,
            "byteLength" : 2304,
            "byteOffset" : 20348
        },
        {
            "buffer" : 0,
            "byteLength" : 1536,
            "byteOffset" : 22652
        },
        {
            "buffer" : 0,
            "byteLength" : 2304,
            "byteOffset" : 24188
        },
        {
            "buffer" : 0,
            "byteLength" : 2304,
            "byteOffset" : 26492
        },
        {
            "buffer" : 0,
            "byteLength" : 1536,
            "byteOffset" : 28796
        },
        {
            "buffer" : 0,
            "byteLength" : 2304,
            "byteOffset" : 30332
        },
        {
            "buffer" : 0,
            "byteLength" : 2304,
            "byteOffset" : 32636
        },
        {
            "buffer" : 0,
            "byteLength" : 1536,
            "byteOffset" : 34940
        },
        {
            "buffer" : 0,
            "byteLength" : 2304,
            "byteOffset" : 36476
        },
        {
            "buffer" : 0,
            "byteLength" : 2304,
            "byteOffset" : 38780
        },
        {
            "buffer" : 0,
            "byteLength" : 1536,
            "byteOffset" : 41084
        }
    ],
    "buffers" : [
        {
            "byteLength" : 42620,
            "uri" : "data:application/octet-stream;base64,"
        }
    ]
}
