# Blender v2.83.12 OBJ File: 'tmp.blend'
# www.blender.org
mtllib saved.mtl
v 2.523459 1.700000 -10.822436
v 2.523459 2.300000 -10.822436
v 1.775871 1.700000 -10.601627
v 1.775871 2.300000 -10.601627
v 0.998406 1.700000 -10.527069
v 0.998406 2.300000 -10.527069
v 0.220940 1.700000 -10.601627
v 0.220940 2.300000 -10.601627
v -0.526648 1.700000 -10.822437
v -0.526648 2.300000 -10.822437
v 2.686396 1.700000 -10.907236
v 2.686395 2.300000 -10.907236
v -0.680139 1.700000 -10.902321
v -0.680139 2.300000 -10.902321
v -0.675000 1.700000 -10.894888
v -0.675000 2.300000 -10.894888
v -0.675000 1.700000 -14.894888
v -0.675000 2.300000 -14.894888
v 2.675000 1.700000 -10.894888
v 2.675000 2.300000 -10.894888
v 2.675000 1.700000 -14.894888
v 2.675000 2.300000 -14.894888
vt 0.569890 0.500000
vt 0.569890 1.000000
vt 0.562500 1.000000
vt 0.562500 0.500000
vt 0.531250 1.000000
vt 0.531250 0.500000
vt 0.500000 1.000000
vt 0.500000 0.500000
vt 0.468750 1.000000
vt 0.468750 0.500000
vt 0.437500 1.000000
vt 0.437500 0.500000
vt 0.351657 0.033514
vt 0.148912 0.033210
vt 0.158156 0.028269
vt 0.203178 0.014612
vt 0.250000 0.010000
vt 0.296822 0.014612
vt 0.341844 0.028269
vt 0.648912 0.033210
vt 0.851657 0.033514
vt 0.841844 0.028269
vt 0.796822 0.014612
vt 0.750000 0.010000
vt 0.703178 0.014612
vt 0.658156 0.028269
vt 0.430538 1.000000
vt 0.430538 0.500000
vt 0.375000 0.000000
vt 0.625000 0.000000
vt 0.625000 0.250000
vt 0.375000 0.250000
vt 0.625000 0.500000
vt 0.375000 0.500000
vt 0.625000 0.750000
vt 0.375000 0.750000
vt 0.625000 1.000000
vt 0.375000 1.000000
vt 0.125000 0.500000
vt 0.125000 0.750000
vt 0.875000 0.500000
vt 0.875000 0.750000
vn 0.4617 0.0000 0.8871
vn 0.2833 -0.0000 0.9590
vn 0.0955 0.0000 0.9954
vn -0.0955 -0.0000 0.9954
vn -0.2833 0.0000 0.9590
vn 0.0000 1.0000 0.0000
vn 0.0000 -1.0000 0.0000
vn -0.4617 0.0000 0.8871
vn -1.0000 0.0000 0.0000
vn 0.0000 0.0000 -1.0000
vn 1.0000 0.0000 0.0000
vn -0.0000 0.0000 1.0000
usemtl パン.耳
s off
f 11/1/1 12/2/1 2/3/1 1/4/1
f 1/4/2 2/3/2 4/5/2 3/6/2
f 3/6/3 4/5/3 6/7/3 5/8/3
f 5/8/4 6/7/4 8/9/4 7/10/4
f 7/10/5 8/9/5 10/11/5 9/12/5
f 12/13/6 14/14/6 10/15/6 8/16/6 6/17/6 4/18/6 2/19/6
f 13/20/7 11/21/7 1/22/7 3/23/7 5/24/7 7/25/7 9/26/7
f 9/12/8 10/11/8 14/27/8 13/28/8
f 15/29/9 16/30/9 18/31/9 17/32/9
f 17/32/10 18/31/10 22/33/10 21/34/10
f 21/34/11 22/33/11 20/35/11 19/36/11
f 19/36/12 20/35/12 16/37/12 15/38/12
f 17/39/7 21/34/7 19/36/7 15/40/7
f 22/33/6 18/41/6 16/42/6 20/35/6
v 2.370385 1.797203 -10.993122
v 2.370385 2.331256 -10.993122
v 1.699966 1.797203 -10.792270
v 1.699966 2.331256 -10.792270
v 1.002755 1.797203 -10.724450
v 1.002755 2.331256 -10.724450
v 0.305543 1.797203 -10.792270
v 0.305543 2.331256 -10.792270
v -0.364875 1.797203 -10.993124
v -0.364875 2.331256 -10.993124
v 2.516502 1.797203 -11.070257
v 2.516502 2.331256 -11.070257
v -0.502522 1.797203 -11.065787
v -0.502522 2.331256 -11.065787
v -0.497913 1.797203 -11.059026
v -0.497913 2.331256 -11.059026
v -0.497913 1.797203 -14.697507
v -0.497913 2.331256 -14.697507
v 2.506283 1.797203 -11.059026
v 2.506283 2.331256 -11.059026
v 2.506283 1.797203 -14.697507
v 2.506283 2.331256 -14.697507
vt 0.569890 0.500000
vt 0.569890 1.000000
vt 0.562500 1.000000
vt 0.562500 0.500000
vt 0.531250 1.000000
vt 0.531250 0.500000
vt 0.500000 1.000000
vt 0.500000 0.500000
vt 0.468750 1.000000
vt 0.468750 0.500000
vt 0.437500 1.000000
vt 0.437500 0.500000
vt 0.351657 0.033514
vt 0.148912 0.033210
vt 0.158156 0.028269
vt 0.203178 0.014612
vt 0.250000 0.010000
vt 0.296822 0.014612
vt 0.341844 0.028269
vt 0.648912 0.033210
vt 0.851657 0.033514
vt 0.841844 0.028269
vt 0.796822 0.014612
vt 0.750000 0.010000
vt 0.703178 0.014612
vt 0.658156 0.028269
vt 0.430538 1.000000
vt 0.430538 0.500000
vt 0.375000 0.000000
vt 0.625000 0.000000
vt 0.625000 0.250000
vt 0.375000 0.250000
vt 0.625000 0.500000
vt 0.375000 0.500000
vt 0.625000 0.750000
vt 0.375000 0.750000
vt 0.625000 1.000000
vt 0.375000 1.000000
vt 0.125000 0.500000
vt 0.125000 0.750000
vt 0.875000 0.500000
vt 0.875000 0.750000
vn 0.4668 -0.0000 0.8843
vn 0.2870 -0.0000 0.9579
vn 0.0968 0.0000 0.9953
vn -0.0968 -0.0000 0.9953
vn -0.2870 -0.0000 0.9579
vn 0.0000 1.0000 -0.0000
vn 0.0000 -1.0000 -0.0000
vn -0.4668 0.0000 0.8843
vn -1.0000 0.0000 0.0000
vn 0.0000 0.0000 -1.0000
vn 1.0000 -0.0000 0.0000
vn 0.0000 0.0000 1.0000
usemtl パン.中身
s off
f 33/43/13 34/44/13 24/45/13 23/46/13
f 23/46/14 24/45/14 26/47/14 25/48/14
f 25/48/15 26/47/15 28/49/15 27/50/15
f 27/50/16 28/49/16 30/51/16 29/52/16
f 29/52/17 30/51/17 32/53/17 31/54/17
f 34/55/18 36/56/18 32/57/18 30/58/18 28/59/18 26/60/18 24/61/18
f 35/62/19 33/63/19 23/64/19 25/65/19 27/66/19 29/67/19 31/68/19
f 31/54/20 32/53/20 36/69/20 35/70/20
f 37/71/21 38/72/21 40/73/21 39/74/21
f 39/74/22 40/73/22 44/75/22 43/76/22
f 43/76/23 44/75/23 42/77/23 41/78/23
f 41/78/24 42/77/24 38/79/24 37/80/24
f 39/81/19 43/76/19 41/78/19 37/82/19
f 44/75/18 40/83/18 38/84/18 42/77/18
