{
    "asset" : {
        "generator" : "Khronos glTF Blender I/O v1.2.75",
        "version" : "2.0"
    },
    "scene" : 0,
    "scenes" : [
        {
            "name" : "Scene",
            "nodes" : [
                0
            ]
        }
    ],
    "nodes" : [
        {
            "mesh" : 0,
            "name" : "\u3064\u307e\u307f",
            "scale" : [
                0.800000011920929,
                0.15000000596046448,
                0.20000000298023224
            ],
            "translation" : [
                0,
                0.3499999940395355,
                0
            ]
        }
    ],
    "materials" : [
        {
            "doubleSided" : true,
            "emissiveFactor" : [
                0,
                0,
                0
            ],
            "name" : "\u9280",
            "pbrMetallicRoughness" : {
                "baseColorFactor" : [
                    0.17886176705360413,
                    0.17886176705360413,
                    0.17886176705360413,
                    1
                ],
                "metallicFactor" : 0.8271604776382446,
                "roughnessFactor" : 0.012345671653747559
            }
        }
    ],
    "meshes" : [
        {
            "name" : "\u7acb\u65b9\u4f53",
            "primitives" : [
                {
                    "attributes" : {
                        "POSITION" : 0,
                        "NORMAL" : 1,
                        "TEXCOORD_0" : 2
                    },
                    "indices" : 3,
                    "material" : 0
                }
            ]
        }
    ],
    "accessors" : [
        {
            "bufferView" : 0,
            "componentType" : 5126,
            "count" : 216,
            "max" : [
                1.25,
                1,
                5
            ],
            "min" : [
                -1.25,
                -3.6666665077209473,
                -5
            ],
            "type" : "VEC3"
        },
        {
            "bufferView" : 1,
            "componentType" : 5126,
            "count" : 216,
            "type" : "VEC3"
        },
        {
            "bufferView" : 2,
            "componentType" : 5126,
            "count" : 216,
            "type" : "VEC2"
        },
        {
            "bufferView" : 3,
            "componentType" : 5123,
            "count" : 408,
            "type" : "SCALAR"
        }
    ],
    "bufferViews" : [
        {
            "buffer" : 0,
            "byteLength" : 2592,
            "byteOffset" : 0
        },
        {
            "buffer" : 0,
            "byteLength" : 2592,
            "byteOffset" : 2592
        },
        {
            "buffer" : 0,
            "byteLength" : 1728,
            "byteOffset" : 5184
        },
        {
            "buffer" : 0,
            "byteLength" : 816,
            "byteOffset" : 6912
        }
    ],
    "buffers" : [
        {
            "byteLength" : 7728,
            "uri" : "data:application/octet-stream;base64,"
        }
    ]
}
