{
    "asset" : {
        "generator" : "Khronos glTF Blender I/O v1.2.75",
        "version" : "2.0"
    },
    "scene" : 0,
    "scenes" : [
        {
            "name" : "Scene",
            "nodes" : [
                0
            ]
        }
    ],
    "nodes" : [
        {
            "mesh" : 0,
            "name" : "\u306f\u3057\u3054",
            "scale" : [
                0.029999999329447746,
                1.7000000476837158,
                0.03999999910593033
            ]
        }
    ],
    "materials" : [
        {
            "doubleSided" : true,
            "emissiveFactor" : [
                0,
                0,
                0
            ],
            "name" : "\u306f\u3057\u3054",
            "pbrMetallicRoughness" : {
                "baseColorFactor" : [
                    0.8000000715255737,
                    0.654524564743042,
                    0.15828150510787964,
                    1
                ],
                "metallicFactor" : 0.43209874629974365,
                "roughnessFactor" : 1
            }
        }
    ],
    "meshes" : [
        {
            "name" : "\u7acb\u65b9\u4f53.088",
            "primitives" : [
                {
                    "attributes" : {
                        "POSITION" : 0,
                        "NORMAL" : 1,
                        "TEXCOORD_0" : 2
                    },
                    "indices" : 3,
                    "material" : 0
                }
            ]
        }
    ],
    "accessors" : [
        {
            "bufferView" : 0,
            "componentType" : 5126,
            "count" : 216,
            "max" : [
                13.655611038208008,
                1.0437400341033936,
                1.0011533498764038
            ],
            "min" : [
                -13.675138473510742,
                -0.958916187286377,
                -1.0000824928283691
            ],
            "type" : "VEC3"
        },
        {
            "bufferView" : 1,
            "componentType" : 5126,
            "count" : 216,
            "type" : "VEC3"
        },
        {
            "bufferView" : 2,
            "componentType" : 5126,
            "count" : 216,
            "type" : "VEC2"
        },
        {
            "bufferView" : 3,
            "componentType" : 5123,
            "count" : 324,
            "type" : "SCALAR"
        }
    ],
    "bufferViews" : [
        {
            "buffer" : 0,
            "byteLength" : 2592,
            "byteOffset" : 0
        },
        {
            "buffer" : 0,
            "byteLength" : 2592,
            "byteOffset" : 2592
        },
        {
            "buffer" : 0,
            "byteLength" : 1728,
            "byteOffset" : 5184
        },
        {
            "buffer" : 0,
            "byteLength" : 648,
            "byteOffset" : 6912
        }
    ],
    "buffers" : [
        {
            "byteLength" : 7560,
            "uri" : "data:application/octet-stream;base64,"
        }
    ]
}
