{
    "asset" : {
        "generator" : "Khronos glTF Blender I/O v1.2.75",
        "version" : "2.0"
    },
    "scene" : 0,
    "scenes" : [
        {
            "name" : "Scene",
            "nodes" : [
                0
            ]
        }
    ],
    "nodes" : [
        {
            "mesh" : 0,
            "name" : "\u30b3\u30f3\u30bb\u30f3\u30c8",
            "scale" : [
                0.699999988079071,
                1.2000000476837158,
                0.004000000189989805
            ],
            "translation" : [
                0,
                0.000744688615668565,
                0.01931915059685707
            ]
        }
    ],
    "materials" : [
        {
            "doubleSided" : true,
            "emissiveFactor" : [
                0,
                0,
                0
            ],
            "name" : "\u30b3\u30f3\u30bb\u30f3\u30c8\u7070.001",
            "pbrMetallicRoughness" : {
                "baseColorFactor" : [
                    0.08353142440319061,
                    0.08353142440319061,
                    0.08353142440319061,
                    1
                ],
                "metallicFactor" : 0,
                "roughnessFactor" : 0.5
            }
        },
        {
            "doubleSided" : true,
            "emissiveFactor" : [
                0,
                0,
                0
            ],
            "name" : "\u30b3\u30f3\u30bb\u30f3\u30c8\u767d.001",
            "pbrMetallicRoughness" : {
                "baseColorFactor" : [
                    0.800000011920929,
                    0.800000011920929,
                    0.800000011920929,
                    1
                ],
                "metallicFactor" : 0,
                "roughnessFactor" : 1
            }
        }
    ],
    "meshes" : [
        {
            "name" : "\u7acb\u65b9\u4f53.020",
            "primitives" : [
                {
                    "attributes" : {
                        "POSITION" : 0,
                        "NORMAL" : 1,
                        "TEXCOORD_0" : 2
                    },
                    "indices" : 3,
                    "material" : 0
                },
                {
                    "attributes" : {
                        "POSITION" : 4,
                        "NORMAL" : 5,
                        "TEXCOORD_0" : 6
                    },
                    "indices" : 7,
                    "material" : 1
                }
            ]
        }
    ],
    "accessors" : [
        {
            "bufferView" : 0,
            "componentType" : 5126,
            "count" : 72,
            "max" : [
                1,
                0.9993793964385986,
                0.1702127456665039
            ],
            "min" : [
                -1,
                -1.0006206035614014,
                -5.829787254333496
            ],
            "type" : "VEC3"
        },
        {
            "bufferView" : 1,
            "componentType" : 5126,
            "count" : 72,
            "type" : "VEC3"
        },
        {
            "bufferView" : 2,
            "componentType" : 5126,
            "count" : 72,
            "type" : "VEC2"
        },
        {
            "bufferView" : 3,
            "componentType" : 5123,
            "count" : 108,
            "type" : "SCALAR"
        },
        {
            "bufferView" : 4,
            "componentType" : 5126,
            "count" : 492,
            "max" : [
                0.4000000059604645,
                0.5993794202804565,
                2.1702146530151367
            ],
            "min" : [
                -0.4000000059604645,
                -0.6006206274032593,
                -0.8297886848449707
            ],
            "type" : "VEC3"
        },
        {
            "bufferView" : 5,
            "componentType" : 5126,
            "count" : 492,
            "type" : "VEC3"
        },
        {
            "bufferView" : 6,
            "componentType" : 5126,
            "count" : 492,
            "type" : "VEC2"
        },
        {
            "bufferView" : 7,
            "componentType" : 5123,
            "count" : 552,
            "type" : "SCALAR"
        }
    ],
    "bufferViews" : [
        {
            "buffer" : 0,
            "byteLength" : 864,
            "byteOffset" : 0
        },
        {
            "buffer" : 0,
            "byteLength" : 864,
            "byteOffset" : 864
        },
        {
            "buffer" : 0,
            "byteLength" : 576,
            "byteOffset" : 1728
        },
        {
            "buffer" : 0,
            "byteLength" : 216,
            "byteOffset" : 2304
        },
        {
            "buffer" : 0,
            "byteLength" : 5904,
            "byteOffset" : 2520
        },
        {
            "buffer" : 0,
            "byteLength" : 5904,
            "byteOffset" : 8424
        },
        {
            "buffer" : 0,
            "byteLength" : 3936,
            "byteOffset" : 14328
        },
        {
            "buffer" : 0,
            "byteLength" : 1104,
            "byteOffset" : 18264
        }
    ],
    "buffers" : [
        {
            "byteLength" : 19368,
            "uri" : "data:application/octet-stream;base64,"
        }
    ]
}
