{
    "asset" : {
        "generator" : "Khronos glTF Blender I/O v1.2.75",
        "version" : "2.0"
    },
    "scene" : 0,
    "scenes" : [
        {
            "name" : "Scene",
            "nodes" : [
                0
            ]
        }
    ],
    "nodes" : [
        {
            "mesh" : 0,
            "name" : "\u30d1\u30f3",
            "scale" : [
                1.6749999523162842,
                0.30000001192092896,
                2
            ]
        }
    ],
    "materials" : [
        {
            "doubleSided" : true,
            "emissiveFactor" : [
                0,
                0,
                0
            ],
            "name" : "\u30d1\u30f3.\u8033",
            "pbrMetallicRoughness" : {
                "baseColorFactor" : [
                    0.6866853833198547,
                    0.2831488251686096,
                    0.07818743586540222,
                    1
                ],
                "metallicFactor" : 0,
                "roughnessFactor" : 0.5
            }
        },
        {
            "doubleSided" : true,
            "emissiveFactor" : [
                0,
                0,
                0
            ],
            "name" : "\u30d1\u30f3.\u4e2d\u8eab",
            "pbrMetallicRoughness" : {
                "baseColorFactor" : [
                    0.7379106283187866,
                    0.5457249283790588,
                    0.3005438446998596,
                    1
                ],
                "metallicFactor" : 0,
                "roughnessFactor" : 0.5
            }
        }
    ],
    "meshes" : [
        {
            "name" : "\u7acb\u65b9\u4f53.057",
            "primitives" : [
                {
                    "attributes" : {
                        "POSITION" : 0,
                        "NORMAL" : 1,
                        "TEXCOORD_0" : 2
                    },
                    "indices" : 3,
                    "material" : 0
                },
                {
                    "attributes" : {
                        "POSITION" : 4,
                        "NORMAL" : 5,
                        "TEXCOORD_0" : 6
                    },
                    "indices" : 3,
                    "material" : 1
                }
            ]
        }
    ],
    "accessors" : [
        {
            "bufferView" : 0,
            "componentType" : 5126,
            "count" : 74,
            "max" : [
                1,
                1,
                1.317456841468811
            ],
            "min" : [
                -1,
                -1.0018978118896484,
                -1
            ],
            "type" : "VEC3"
        },
        {
            "bufferView" : 1,
            "componentType" : 5126,
            "count" : 74,
            "type" : "VEC3"
        },
        {
            "bufferView" : 2,
            "componentType" : 5126,
            "count" : 74,
            "type" : "VEC2"
        },
        {
            "bufferView" : 3,
            "componentType" : 5123,
            "count" : 126,
            "type" : "SCALAR"
        },
        {
            "bufferView" : 4,
            "componentType" : 5126,
            "count" : 74,
            "max" : [
                0.9152975678443909,
                1.0454740524291992,
                1.205864429473877
            ],
            "min" : [
                -0.9152975678443909,
                -0.786858081817627,
                -0.9152979254722595
            ],
            "type" : "VEC3"
        },
        {
            "bufferView" : 5,
            "componentType" : 5126,
            "count" : 74,
            "type" : "VEC3"
        },
        {
            "bufferView" : 6,
            "componentType" : 5126,
            "count" : 74,
            "type" : "VEC2"
        }
    ],
    "bufferViews" : [
        {
            "buffer" : 0,
            "byteLength" : 888,
            "byteOffset" : 0
        },
        {
            "buffer" : 0,
            "byteLength" : 888,
            "byteOffset" : 888
        },
        {
            "buffer" : 0,
            "byteLength" : 592,
            "byteOffset" : 1776
        },
        {
            "buffer" : 0,
            "byteLength" : 252,
            "byteOffset" : 2368
        },
        {
            "buffer" : 0,
            "byteLength" : 888,
            "byteOffset" : 2620
        },
        {
            "buffer" : 0,
            "byteLength" : 888,
            "byteOffset" : 3508
        },
        {
            "buffer" : 0,
            "byteLength" : 592,
            "byteOffset" : 4396
        }
    ],
    "buffers" : [
        {
            "byteLength" : 4988,
            "uri" : "data:application/octet-stream;base64,"
        }
    ]
}
