{
    "asset" : {
        "generator" : "Khronos glTF Blender I/O v1.2.75",
        "version" : "2.0"
    },
    "scene" : 0,
    "scenes" : [
        {
            "name" : "Scene",
            "nodes" : [
                0
            ]
        }
    ],
    "nodes" : [
        {
            "mesh" : 0,
            "name" : "\u30d7\u30e9\u30b0",
            "rotation" : [
                0,
                0,
                -0.7071067690849304,
                0.7071067690849304
            ],
            "scale" : [
                0.18000000715255737,
                0.23999999463558197,
                0.004000000189989805
            ],
            "translation" : [
                0.0047187102027237415,
                0,
                -0.1810406744480133
            ]
        }
    ],
    "materials" : [
        {
            "doubleSided" : true,
            "emissiveFactor" : [
                0,
                0,
                0
            ],
            "name" : "\u30d7\u30e9\u30b0.001",
            "pbrMetallicRoughness" : {
                "baseColorFactor" : [
                    0,
                    0,
                    0,
                    1
                ],
                "metallicFactor" : 1,
                "roughnessFactor" : 0.06790122389793396
            }
        },
        {
            "doubleSided" : true,
            "emissiveFactor" : [
                0,
                0,
                0
            ],
            "name" : "\u9280.004",
            "pbrMetallicRoughness" : {
                "baseColorFactor" : [
                    0.800000011920929,
                    0.800000011920929,
                    0.800000011920929,
                    1
                ],
                "metallicFactor" : 0.9444444179534912,
                "roughnessFactor" : 0
            }
        }
    ],
    "meshes" : [
        {
            "name" : "\u7acb\u65b9\u4f53.012",
            "primitives" : [
                {
                    "attributes" : {
                        "POSITION" : 0,
                        "NORMAL" : 1,
                        "TEXCOORD_0" : 2
                    },
                    "indices" : 3,
                    "material" : 0
                },
                {
                    "attributes" : {
                        "POSITION" : 4,
                        "NORMAL" : 5,
                        "TEXCOORD_0" : 6
                    },
                    "indices" : 7,
                    "material" : 1
                }
            ]
        }
    ],
    "accessors" : [
        {
            "bufferView" : 0,
            "componentType" : 5126,
            "count" : 1158,
            "max" : [
                1.0222203731536865,
                0.9970054626464844,
                46.26016616821289
            ],
            "min" : [
                -1.0222244262695312,
                -1.0363280773162842,
                -170.7462921142578
            ],
            "type" : "VEC3"
        },
        {
            "bufferView" : 1,
            "componentType" : 5126,
            "count" : 1158,
            "type" : "VEC3"
        },
        {
            "bufferView" : 2,
            "componentType" : 5126,
            "count" : 1158,
            "type" : "VEC2"
        },
        {
            "bufferView" : 3,
            "componentType" : 5123,
            "count" : 1260,
            "type" : "SCALAR"
        },
        {
            "bufferView" : 4,
            "componentType" : 5126,
            "count" : 11803,
            "max" : [
                0.3888935446739197,
                0.5863516926765442,
                121.68603515625
            ],
            "min" : [
                -0.3888845145702362,
                -0.49580317735671997,
                12.936023712158203
            ],
            "type" : "VEC3"
        },
        {
            "bufferView" : 5,
            "componentType" : 5126,
            "count" : 11803,
            "type" : "VEC3"
        },
        {
            "bufferView" : 6,
            "componentType" : 5126,
            "count" : 11803,
            "type" : "VEC2"
        },
        {
            "bufferView" : 7,
            "componentType" : 5123,
            "count" : 13824,
            "type" : "SCALAR"
        }
    ],
    "bufferViews" : [
        {
            "buffer" : 0,
            "byteLength" : 13896,
            "byteOffset" : 0
        },
        {
            "buffer" : 0,
            "byteLength" : 13896,
            "byteOffset" : 13896
        },
        {
            "buffer" : 0,
            "byteLength" : 9264,
            "byteOffset" : 27792
        },
        {
            "buffer" : 0,
            "byteLength" : 2520,
            "byteOffset" : 37056
        },
        {
            "buffer" : 0,
            "byteLength" : 141636,
            "byteOffset" : 39576
        },
        {
            "buffer" : 0,
            "byteLength" : 141636,
            "byteOffset" : 181212
        },
        {
            "buffer" : 0,
            "byteLength" : 94424,
            "byteOffset" : 322848
        },
        {
            "buffer" : 0,
            "byteLength" : 27648,
            "byteOffset" : 417272
        }
    ],
    "buffers" : [
        {
            "byteLength" : 444920,
            "uri" : "data:application/octet-stream;base64,"
        }
    ]
}
