{
    "asset" : {
        "generator" : "Khronos glTF Blender I/O v1.2.75",
        "version" : "2.0"
    },
    "scene" : 0,
    "scenes" : [
        {
            "name" : "Scene",
            "nodes" : [
                0
            ]
        }
    ],
    "nodes" : [
        {
            "mesh" : 0,
            "name" : "\u5c0f\u4eba",
            "rotation" : [
                0.3355703055858612,
                0,
                0,
                0.9420151710510254
            ],
            "scale" : [
                0.020749036222696304,
                0.21491146087646484,
                0.020749036222696304
            ],
            "translation" : [
                0,
                -0.12316317111253738,
                -0.24110651016235352
            ]
        }
    ],
    "materials" : [
        {
            "doubleSided" : true,
            "emissiveFactor" : [
                0,
                0,
                0
            ],
            "name" : "\u5c0f\u4eba,\u808c",
            "pbrMetallicRoughness" : {
                "baseColorFactor" : [
                    0.8000000715255737,
                    0.35171324014663696,
                    0.33760738372802734,
                    1
                ],
                "metallicFactor" : 0,
                "roughnessFactor" : 0.5
            }
        },
        {
            "doubleSided" : true,
            "emissiveFactor" : [
                0,
                0,
                0
            ],
            "name" : "\u5c0f\u4eba.\u30dc\u30bf\u30f3",
            "pbrMetallicRoughness" : {
                "baseColorFactor" : [
                    0,
                    0,
                    0,
                    1
                ],
                "metallicFactor" : 0,
                "roughnessFactor" : 0.5
            }
        },
        {
            "doubleSided" : true,
            "emissiveFactor" : [
                0,
                0,
                0
            ],
            "name" : "\u5c0f\u4eba.\u670d",
            "pbrMetallicRoughness" : {
                "baseColorFactor" : [
                    0.31036022305488586,
                    0.12953048944473267,
                    0.8000000715255737,
                    1
                ],
                "metallicFactor" : 0,
                "roughnessFactor" : 0.5
            }
        },
        {
            "doubleSided" : true,
            "emissiveFactor" : [
                0,
                0,
                0
            ],
            "name" : "\u5c0f\u4eba.\u76ee",
            "pbrMetallicRoughness" : {
                "baseColorFactor" : [
                    0.004895683843642473,
                    0.004895683843642473,
                    0.004895683843642473,
                    1
                ],
                "metallicFactor" : 0,
                "roughnessFactor" : 0.5
            }
        }
    ],
    "meshes" : [
        {
            "name" : "\u5186\u67f1.006",
            "primitives" : [
                {
                    "attributes" : {
                        "POSITION" : 0,
                        "NORMAL" : 1,
                        "TEXCOORD_0" : 2
                    },
                    "indices" : 3,
                    "material" : 0
                },
                {
                    "attributes" : {
                        "POSITION" : 4,
                        "NORMAL" : 5,
                        "TEXCOORD_0" : 6
                    },
                    "indices" : 7,
                    "material" : 1
                },
                {
                    "attributes" : {
                        "POSITION" : 8,
                        "NORMAL" : 9,
                        "TEXCOORD_0" : 10
                    },
                    "indices" : 11,
                    "material" : 2
                },
                {
                    "attributes" : {
                        "POSITION" : 12,
                        "NORMAL" : 13,
                        "TEXCOORD_0" : 14
                    },
                    "indices" : 15,
                    "material" : 3
                }
            ]
        }
    ],
    "accessors" : [
        {
            "bufferView" : 0,
            "componentType" : 5126,
            "count" : 2752,
            "max" : [
                9.831783294677734,
                3.157651424407959,
                39.295467376708984
            ],
            "min" : [
                -9.831778526306152,
                -2.6786301136016846,
                -13.490947723388672
            ],
            "type" : "VEC3"
        },
        {
            "bufferView" : 1,
            "componentType" : 5126,
            "count" : 2752,
            "type" : "VEC3"
        },
        {
            "bufferView" : 2,
            "componentType" : 5126,
            "count" : 2752,
            "type" : "VEC2"
        },
        {
            "bufferView" : 3,
            "componentType" : 5123,
            "count" : 4368,
            "type" : "SCALAR"
        },
        {
            "bufferView" : 4,
            "componentType" : 5126,
            "count" : 576,
            "max" : [
                12.78895092010498,
                1.2886139154434204,
                15.056867599487305
            ],
            "min" : [
                5.4256486892700195,
                0.020829468965530396,
                3.8705549240112305
            ],
            "type" : "VEC3"
        },
        {
            "bufferView" : 5,
            "componentType" : 5126,
            "count" : 576,
            "type" : "VEC3"
        },
        {
            "bufferView" : 6,
            "componentType" : 5126,
            "count" : 576,
            "type" : "VEC2"
        },
        {
            "bufferView" : 7,
            "componentType" : 5123,
            "count" : 1116,
            "type" : "SCALAR"
        },
        {
            "bufferView" : 8,
            "componentType" : 5126,
            "count" : 193,
            "max" : [
                14.747673034667969,
                4.697535514831543,
                32.21632766723633
            ],
            "min" : [
                -14.747673034667969,
                -1.5855023860931396,
                -24.70499038696289
            ],
            "type" : "VEC3"
        },
        {
            "bufferView" : 9,
            "componentType" : 5126,
            "count" : 193,
            "type" : "VEC3"
        },
        {
            "bufferView" : 10,
            "componentType" : 5126,
            "count" : 193,
            "type" : "VEC2"
        },
        {
            "bufferView" : 11,
            "componentType" : 5123,
            "count" : 372,
            "type" : "SCALAR"
        },
        {
            "bufferView" : 12,
            "componentType" : 5126,
            "count" : 3968,
            "max" : [
                10.127260208129883,
                2.7229068279266357,
                -0.646340012550354
            ],
            "min" : [
                8.331549644470215,
                1.9874628782272339,
                -9.141883850097656
            ],
            "type" : "VEC3"
        },
        {
            "bufferView" : 13,
            "componentType" : 5126,
            "count" : 3968,
            "type" : "VEC3"
        },
        {
            "bufferView" : 14,
            "componentType" : 5126,
            "count" : 3968,
            "type" : "VEC2"
        },
        {
            "bufferView" : 15,
            "componentType" : 5123,
            "count" : 5760,
            "type" : "SCALAR"
        }
    ],
    "bufferViews" : [
        {
            "buffer" : 0,
            "byteLength" : 33024,
            "byteOffset" : 0
        },
        {
            "buffer" : 0,
            "byteLength" : 33024,
            "byteOffset" : 33024
        },
        {
            "buffer" : 0,
            "byteLength" : 22016,
            "byteOffset" : 66048
        },
        {
            "buffer" : 0,
            "byteLength" : 8736,
            "byteOffset" : 88064
        },
        {
            "buffer" : 0,
            "byteLength" : 6912,
            "byteOffset" : 96800
        },
        {
            "buffer" : 0,
            "byteLength" : 6912,
            "byteOffset" : 103712
        },
        {
            "buffer" : 0,
            "byteLength" : 4608,
            "byteOffset" : 110624
        },
        {
            "buffer" : 0,
            "byteLength" : 2232,
            "byteOffset" : 115232
        },
        {
            "buffer" : 0,
            "byteLength" : 2316,
            "byteOffset" : 117464
        },
        {
            "buffer" : 0,
            "byteLength" : 2316,
            "byteOffset" : 119780
        },
        {
            "buffer" : 0,
            "byteLength" : 1544,
            "byteOffset" : 122096
        },
        {
            "buffer" : 0,
            "byteLength" : 744,
            "byteOffset" : 123640
        },
        {
            "buffer" : 0,
            "byteLength" : 47616,
            "byteOffset" : 124384
        },
        {
            "buffer" : 0,
            "byteLength" : 47616,
            "byteOffset" : 172000
        },
        {
            "buffer" : 0,
            "byteLength" : 31744,
            "byteOffset" : 219616
        },
        {
            "buffer" : 0,
            "byteLength" : 11520,
            "byteOffset" : 251360
        }
    ],
    "buffers" : [
        {
            "byteLength" : 262880,
            "uri" : "data:application/octet-stream;base64,"
        }
    ]
}
