{
    "asset" : {
        "generator" : "Khronos glTF Blender I/O v1.2.75",
        "version" : "2.0"
    },
    "scene" : 0,
    "scenes" : [
        {
            "name" : "Scene",
            "nodes" : [
                0
            ]
        }
    ],
    "nodes" : [
        {
            "mesh" : 0,
            "name" : "\u76ee\u7389\u713c\u304d"
        }
    ],
    "materials" : [
        {
            "doubleSided" : true,
            "emissiveFactor" : [
                0,
                0,
                0
            ],
            "name" : "\u76ee\u7389\u713c\u304d.\u767d\u8eab",
            "pbrMetallicRoughness" : {
                "baseColorFactor" : [
                    0.7156937718391418,
                    0.7156937718391418,
                    0.610495924949646,
                    1
                ],
                "metallicFactor" : 0,
                "roughnessFactor" : 0.5
            }
        },
        {
            "doubleSided" : true,
            "emissiveFactor" : [
                0,
                0,
                0
            ],
            "name" : "\u76ee\u7389\u713c\u304d.\u9ec4\u8eab",
            "pbrMetallicRoughness" : {
                "baseColorFactor" : [
                    0.6375971436500549,
                    0.13013651967048645,
                    0.0009105791104957461,
                    1
                ],
                "metallicFactor" : 0,
                "roughnessFactor" : 0.5
            }
        }
    ],
    "meshes" : [
        {
            "name" : "\u5186.003",
            "primitives" : [
                {
                    "attributes" : {
                        "POSITION" : 0,
                        "NORMAL" : 1,
                        "TEXCOORD_0" : 2
                    },
                    "indices" : 3,
                    "material" : 0
                },
                {
                    "attributes" : {
                        "POSITION" : 4,
                        "NORMAL" : 5,
                        "TEXCOORD_0" : 6
                    },
                    "indices" : 7,
                    "material" : 1
                }
            ]
        }
    ],
    "accessors" : [
        {
            "bufferView" : 0,
            "componentType" : 5126,
            "count" : 2816,
            "max" : [
                1.5857301950454712,
                0.15044395625591278,
                1.2264599800109863
            ],
            "min" : [
                -1.662114143371582,
                -0.18085680902004242,
                -1.2471338510513306
            ],
            "type" : "VEC3"
        },
        {
            "bufferView" : 1,
            "componentType" : 5126,
            "count" : 2816,
            "type" : "VEC3"
        },
        {
            "bufferView" : 2,
            "componentType" : 5126,
            "count" : 2816,
            "type" : "VEC2"
        },
        {
            "bufferView" : 3,
            "componentType" : 5123,
            "count" : 4596,
            "type" : "SCALAR"
        },
        {
            "bufferView" : 4,
            "componentType" : 5126,
            "count" : 1664,
            "max" : [
                0.8930977582931519,
                0.4899751543998718,
                0.620195746421814
            ],
            "min" : [
                -0.5075699090957642,
                0.15304072201251984,
                -0.6002933979034424
            ],
            "type" : "VEC3"
        },
        {
            "bufferView" : 5,
            "componentType" : 5126,
            "count" : 1664,
            "type" : "VEC3"
        },
        {
            "bufferView" : 6,
            "componentType" : 5126,
            "count" : 1664,
            "type" : "VEC2"
        },
        {
            "bufferView" : 7,
            "componentType" : 5123,
            "count" : 2676,
            "type" : "SCALAR"
        }
    ],
    "bufferViews" : [
        {
            "buffer" : 0,
            "byteLength" : 33792,
            "byteOffset" : 0
        },
        {
            "buffer" : 0,
            "byteLength" : 33792,
            "byteOffset" : 33792
        },
        {
            "buffer" : 0,
            "byteLength" : 22528,
            "byteOffset" : 67584
        },
        {
            "buffer" : 0,
            "byteLength" : 9192,
            "byteOffset" : 90112
        },
        {
            "buffer" : 0,
            "byteLength" : 19968,
            "byteOffset" : 99304
        },
        {
            "buffer" : 0,
            "byteLength" : 19968,
            "byteOffset" : 119272
        },
        {
            "buffer" : 0,
            "byteLength" : 13312,
            "byteOffset" : 139240
        },
        {
            "buffer" : 0,
            "byteLength" : 5352,
            "byteOffset" : 152552
        }
    ],
    "buffers" : [
        {
            "byteLength" : 157904,
            "uri" : "data:application/octet-stream;base64,"
        }
    ]
}
