{
    "asset" : {
        "generator" : "Khronos glTF Blender I/O v1.2.75",
        "version" : "2.0"
    },
    "scene" : 0,
    "scenes" : [
        {
            "name" : "Scene",
            "nodes" : [
                0
            ]
        }
    ],
    "nodes" : [
        {
            "mesh" : 0,
            "name" : "\u770b\u677f",
            "rotation" : [
                0,
                0,
                -1,
                -4.371138828673793e-08
            ],
            "scale" : [
                0.10000000149011612,
                0.8999999761581421,
                0.03999999910593033
            ],
            "translation" : [
                -0.00929603073745966,
                -0.1333610713481903,
                -0.06598731130361557
            ]
        }
    ],
    "materials" : [
        {
            "doubleSided" : true,
            "emissiveFactor" : [
                0,
                0,
                0
            ],
            "name" : "\u6728\u6750",
            "pbrMetallicRoughness" : {
                "baseColorFactor" : [
                    0.7991031408309937,
                    0.38642942905426025,
                    0.1356334090232849,
                    1
                ],
                "metallicFactor" : 0,
                "roughnessFactor" : 0.5
            }
        },
        {
            "doubleSided" : true,
            "emissiveFactor" : [
                0,
                0,
                0
            ],
            "name" : "\u5869\u30d3",
            "pbrMetallicRoughness" : {
                "baseColorFactor" : [
                    0.23839765787124634,
                    0.28314879536628723,
                    0.3515326678752899,
                    1
                ],
                "metallicFactor" : 0,
                "roughnessFactor" : 0.9166666865348816
            }
        }
    ],
    "meshes" : [
        {
            "name" : "Cube.009",
            "primitives" : [
                {
                    "attributes" : {
                        "POSITION" : 0,
                        "NORMAL" : 1,
                        "TEXCOORD_0" : 2,
                        "TEXCOORD_1" : 3
                    },
                    "indices" : 4,
                    "material" : 0
                },
                {
                    "attributes" : {
                        "POSITION" : 5,
                        "NORMAL" : 6,
                        "TEXCOORD_0" : 7,
                        "TEXCOORD_1" : 8
                    },
                    "indices" : 9,
                    "material" : 1
                }
            ]
        }
    ],
    "accessors" : [
        {
            "bufferView" : 0,
            "componentType" : 5126,
            "count" : 150,
            "max" : [
                17.907384872436523,
                0.8525537252426147,
                5.724199295043945
            ],
            "min" : [
                -18.09263038635254,
                -1.1497159004211426,
                3.4946861267089844
            ],
            "type" : "VEC3"
        },
        {
            "bufferView" : 1,
            "componentType" : 5126,
            "count" : 150,
            "type" : "VEC3"
        },
        {
            "bufferView" : 2,
            "componentType" : 5126,
            "count" : 150,
            "type" : "VEC2"
        },
        {
            "bufferView" : 3,
            "componentType" : 5126,
            "count" : 150,
            "type" : "VEC2"
        },
        {
            "bufferView" : 4,
            "componentType" : 5123,
            "count" : 240,
            "type" : "SCALAR"
        },
        {
            "bufferView" : 5,
            "componentType" : 5126,
            "count" : 1152,
            "max" : [
                14.907039642333984,
                1.446176290512085,
                3.3996827602386475
            ],
            "min" : [
                -15.092961311340332,
                -0.7837952375411987,
                -32.010719299316406
            ],
            "type" : "VEC3"
        },
        {
            "bufferView" : 6,
            "componentType" : 5126,
            "count" : 1152,
            "type" : "VEC3"
        },
        {
            "bufferView" : 7,
            "componentType" : 5126,
            "count" : 1152,
            "type" : "VEC2"
        },
        {
            "bufferView" : 8,
            "componentType" : 5126,
            "count" : 1152,
            "type" : "VEC2"
        },
        {
            "bufferView" : 9,
            "componentType" : 5123,
            "count" : 2232,
            "type" : "SCALAR"
        }
    ],
    "bufferViews" : [
        {
            "buffer" : 0,
            "byteLength" : 1800,
            "byteOffset" : 0
        },
        {
            "buffer" : 0,
            "byteLength" : 1800,
            "byteOffset" : 1800
        },
        {
            "buffer" : 0,
            "byteLength" : 1200,
            "byteOffset" : 3600
        },
        {
            "buffer" : 0,
            "byteLength" : 1200,
            "byteOffset" : 4800
        },
        {
            "buffer" : 0,
            "byteLength" : 480,
            "byteOffset" : 6000
        },
        {
            "buffer" : 0,
            "byteLength" : 13824,
            "byteOffset" : 6480
        },
        {
            "buffer" : 0,
            "byteLength" : 13824,
            "byteOffset" : 20304
        },
        {
            "buffer" : 0,
            "byteLength" : 9216,
            "byteOffset" : 34128
        },
        {
            "buffer" : 0,
            "byteLength" : 9216,
            "byteOffset" : 43344
        },
        {
            "buffer" : 0,
            "byteLength" : 4464,
            "byteOffset" : 52560
        }
    ],
    "buffers" : [
        {
            "byteLength" : 57024,
            "uri" : "data:application/octet-stream;base64,"
        }
    ]
}
