{
    "asset" : {
        "generator" : "Khronos glTF Blender I/O v1.2.75",
        "version" : "2.0"
    },
    "scene" : 0,
    "scenes" : [
        {
            "name" : "Scene",
            "nodes" : [
                0
            ]
        }
    ],
    "nodes" : [
        {
            "mesh" : 0,
            "name" : "\u652f\u67f1",
            "rotation" : [
                0.24512434005737305,
                0.6632601618766785,
                0.24512434005737305,
                0.6632601618766785
            ],
            "scale" : [
                0.05000000074505806,
                0.3100000023841858,
                0.05000000074505806
            ],
            "translation" : [
                -1.2561156749725342,
                0.09664411097764969,
                -0.14276359975337982
            ]
        }
    ],
    "materials" : [
        {
            "doubleSided" : true,
            "emissiveFactor" : [
                0,
                0,
                0
            ],
            "name" : "\u30a6\u30c3\u30c9\u30d1\u30bf\u30fc\u30f3",
            "pbrMetallicRoughness" : {
                "baseColorFactor" : [
                    0.8000000715255737,
                    0.4891391396522522,
                    0.08583559095859528,
                    1
                ],
                "metallicFactor" : 0,
                "roughnessFactor" : 0.5
            }
        },
        {
            "doubleSided" : true,
            "emissiveFactor" : [
                0,
                0,
                0
            ],
            "name" : "\u30a6\u30c3\u30c9\u30d1\u30bf\u30fc\u30f3.001",
            "pbrMetallicRoughness" : {
                "baseColorFactor" : [
                    0.8000000715255737,
                    0.4891391396522522,
                    0.08583559095859528,
                    1
                ],
                "metallicFactor" : 0,
                "roughnessFactor" : 0.5
            }
        },
        {
            "doubleSided" : true,
            "emissiveFactor" : [
                0,
                0,
                0
            ],
            "name" : "\u30a6\u30c3\u30c9\u30d1\u30bf\u30fc\u30f3.002",
            "pbrMetallicRoughness" : {
                "baseColorFactor" : [
                    0.8000000715255737,
                    0.4891391396522522,
                    0.08583559095859528,
                    1
                ],
                "metallicFactor" : 0,
                "roughnessFactor" : 0.5
            }
        },
        {
            "doubleSided" : true,
            "emissiveFactor" : [
                0,
                0,
                0
            ],
            "name" : "\u30a6\u30c3\u30c9\u30d1\u30bf\u30fc\u30f3.003",
            "pbrMetallicRoughness" : {
                "baseColorFactor" : [
                    0.8000000715255737,
                    0.4891391396522522,
                    0.08583559095859528,
                    1
                ],
                "metallicFactor" : 0,
                "roughnessFactor" : 0.5
            }
        },
        {
            "doubleSided" : true,
            "emissiveFactor" : [
                0,
                0,
                0
            ],
            "name" : "\u30a6\u30c3\u30c9\u30d1\u30bf\u30fc\u30f3.004",
            "pbrMetallicRoughness" : {
                "baseColorFactor" : [
                    0.8000000715255737,
                    0.4891391396522522,
                    0.08583559095859528,
                    1
                ],
                "metallicFactor" : 0,
                "roughnessFactor" : 0.5
            }
        }
    ],
    "meshes" : [
        {
            "name" : "\u7acb\u65b9\u4f53.057",
            "primitives" : [
                {
                    "attributes" : {
                        "POSITION" : 0,
                        "NORMAL" : 1,
                        "TEXCOORD_0" : 2
                    },
                    "indices" : 3,
                    "material" : 0
                },
                {
                    "attributes" : {
                        "POSITION" : 4,
                        "NORMAL" : 5,
                        "TEXCOORD_0" : 6
                    },
                    "indices" : 7,
                    "material" : 1
                },
                {
                    "attributes" : {
                        "POSITION" : 8,
                        "NORMAL" : 9,
                        "TEXCOORD_0" : 10
                    },
                    "indices" : 11,
                    "material" : 2
                },
                {
                    "attributes" : {
                        "POSITION" : 12,
                        "NORMAL" : 13,
                        "TEXCOORD_0" : 14
                    },
                    "indices" : 15,
                    "material" : 3
                },
                {
                    "attributes" : {
                        "POSITION" : 16,
                        "NORMAL" : 17,
                        "TEXCOORD_0" : 18
                    },
                    "indices" : 19,
                    "material" : 4
                }
            ]
        }
    ],
    "accessors" : [
        {
            "bufferView" : 0,
            "componentType" : 5126,
            "count" : 960,
            "max" : [
                9.892913818359375,
                2.4734480381011963,
                53.98311996459961
            ],
            "min" : [
                -8.894853591918945,
                -2.469844341278076,
                -1.227203369140625
            ],
            "type" : "VEC3"
        },
        {
            "bufferView" : 1,
            "componentType" : 5126,
            "count" : 960,
            "type" : "VEC3"
        },
        {
            "bufferView" : 2,
            "componentType" : 5126,
            "count" : 960,
            "type" : "VEC2"
        },
        {
            "bufferView" : 3,
            "componentType" : 5123,
            "count" : 1440,
            "type" : "SCALAR"
        },
        {
            "bufferView" : 4,
            "componentType" : 5126,
            "count" : 24,
            "max" : [
                -1.4070881605148315,
                0.3665808439254761,
                26.020727157592773
            ],
            "min" : [
                -4.549765110015869,
                -0.07258753478527069,
                24.020727157592773
            ],
            "type" : "VEC3"
        },
        {
            "bufferView" : 5,
            "componentType" : 5126,
            "count" : 24,
            "type" : "VEC3"
        },
        {
            "bufferView" : 6,
            "componentType" : 5126,
            "count" : 24,
            "type" : "VEC2"
        },
        {
            "bufferView" : 7,
            "componentType" : 5123,
            "count" : 36,
            "type" : "SCALAR"
        },
        {
            "bufferView" : 8,
            "componentType" : 5126,
            "count" : 24,
            "max" : [
                7.170302391052246,
                2.4717702865600586,
                14.858186721801758
            ],
            "min" : [
                6.606308937072754,
                2.3808035850524902,
                -1.1418132781982422
            ],
            "type" : "VEC3"
        },
        {
            "bufferView" : 9,
            "componentType" : 5126,
            "count" : 24,
            "type" : "VEC3"
        },
        {
            "bufferView" : 10,
            "componentType" : 5126,
            "count" : 24,
            "type" : "VEC2"
        },
        {
            "bufferView" : 11,
            "componentType" : 5123,
            "count" : 36,
            "type" : "SCALAR"
        },
        {
            "bufferView" : 12,
            "componentType" : 5126,
            "count" : 24,
            "max" : [
                2.1640682220458984,
                1.0291653871536255,
                53.95857238769531
            ],
            "min" : [
                -1.1346867084503174,
                0.5605909824371338,
                53.558570861816406
            ],
            "type" : "VEC3"
        },
        {
            "bufferView" : 13,
            "componentType" : 5126,
            "count" : 24,
            "type" : "VEC3"
        },
        {
            "bufferView" : 14,
            "componentType" : 5126,
            "count" : 24,
            "type" : "VEC2"
        },
        {
            "bufferView" : 15,
            "componentType" : 5123,
            "count" : 36,
            "type" : "SCALAR"
        },
        {
            "bufferView" : 16,
            "componentType" : 5126,
            "count" : 24,
            "max" : [
                0.6237695217132568,
                0.807034969329834,
                53.98311996459961
            ],
            "min" : [
                -7.483990669250488,
                -0.7052239179611206,
                53.5831184387207
            ],
            "type" : "VEC3"
        },
        {
            "bufferView" : 17,
            "componentType" : 5126,
            "count" : 24,
            "type" : "VEC3"
        },
        {
            "bufferView" : 18,
            "componentType" : 5126,
            "count" : 24,
            "type" : "VEC2"
        },
        {
            "bufferView" : 19,
            "componentType" : 5123,
            "count" : 36,
            "type" : "SCALAR"
        }
    ],
    "bufferViews" : [
        {
            "buffer" : 0,
            "byteLength" : 11520,
            "byteOffset" : 0
        },
        {
            "buffer" : 0,
            "byteLength" : 11520,
            "byteOffset" : 11520
        },
        {
            "buffer" : 0,
            "byteLength" : 7680,
            "byteOffset" : 23040
        },
        {
            "buffer" : 0,
            "byteLength" : 2880,
            "byteOffset" : 30720
        },
        {
            "buffer" : 0,
            "byteLength" : 288,
            "byteOffset" : 33600
        },
        {
            "buffer" : 0,
            "byteLength" : 288,
            "byteOffset" : 33888
        },
        {
            "buffer" : 0,
            "byteLength" : 192,
            "byteOffset" : 34176
        },
        {
            "buffer" : 0,
            "byteLength" : 72,
            "byteOffset" : 34368
        },
        {
            "buffer" : 0,
            "byteLength" : 288,
            "byteOffset" : 34440
        },
        {
            "buffer" : 0,
            "byteLength" : 288,
            "byteOffset" : 34728
        },
        {
            "buffer" : 0,
            "byteLength" : 192,
            "byteOffset" : 35016
        },
        {
            "buffer" : 0,
            "byteLength" : 72,
            "byteOffset" : 35208
        },
        {
            "buffer" : 0,
            "byteLength" : 288,
            "byteOffset" : 35280
        },
        {
            "buffer" : 0,
            "byteLength" : 288,
            "byteOffset" : 35568
        },
        {
            "buffer" : 0,
            "byteLength" : 192,
            "byteOffset" : 35856
        },
        {
            "buffer" : 0,
            "byteLength" : 72,
            "byteOffset" : 36048
        },
        {
            "buffer" : 0,
            "byteLength" : 288,
            "byteOffset" : 36120
        },
        {
            "buffer" : 0,
            "byteLength" : 288,
            "byteOffset" : 36408
        },
        {
            "buffer" : 0,
            "byteLength" : 192,
            "byteOffset" : 36696
        },
        {
            "buffer" : 0,
            "byteLength" : 72,
            "byteOffset" : 36888
        }
    ],
    "buffers" : [
        {
            "byteLength" : 36960,
            "uri" : "data:application/octet-stream;base64,"
        }
    ]
}
